<svg xmlns="http://www.w3.org/2000/svg">
  <symbol id="logo" viewBox="0 0 53 38">
    <path d="M0 8.56477C0 6.10363 0.8 4.13472 2.4 2.46114C4.1 0.88601 6.1 0 8.6 0C11.2 0 13.2 0.689119 14.8 2.1658L13.6 3.93782C13 3.34715 12.2 2.95337 11.3 2.65803C10.4 2.36269 9.6 2.1658 8.7 2.1658C6.8 2.1658 5.3 2.75648 4.1 3.93782C3 5.21762 2.5 6.6943 2.5 8.56477C2.5 10.4352 3.1 12.0104 4.2 13.2902C5.4 14.5699 6.9 15.1606 8.8 15.1606C9.7 15.1606 10.7 14.9637 11.6 14.5699C12.5 14.1762 13.3 13.6839 14 12.9948L15.3 14.6684C13.5 16.4404 11.3 17.3264 8.7 17.3264C6.1 17.3264 4 16.5389 2.4 14.8653C0.8 13.0933 0 11.0259 0 8.56477Z"/>
    <path d="M18.3 17.0311V0.295334H20.6V7.58031H29.4V0.295334H31.8V16.9326H29.4V9.64767H20.6V16.9326H18.3V17.0311Z"/>
    <path d="M35.2 8.56477C35.2 6.20207 36 4.13472 37.7 2.46114C39.3 0.787565 41.4 0 43.9 0C46.4 0 48.5 0.787565 50.1 2.46114C51.8 4.13472 52.6 6.10363 52.6 8.56477C52.6 11.0259 51.8 13.0933 50.1 14.7668C48.4 16.4404 46.4 17.3264 43.9 17.3264C41.4 17.3264 39.3 16.4404 37.7 14.7668C36 13.0933 35.2 11.0259 35.2 8.56477ZM37.7 8.56477C37.7 10.4352 38.3 12.0104 39.5 13.2902C40.7 14.5699 42.2 15.1606 44 15.1606C45.8 15.1606 47.3 14.5699 48.5 13.2902C49.7 12.0104 50.3 10.4352 50.3 8.56477C50.3 6.79275 49.7 5.21762 48.5 4.03627C47.3 2.85492 45.8 2.1658 44 2.1658C42.2 2.1658 40.7 2.75648 39.5 4.03627C38.2 5.21762 37.7 6.6943 37.7 8.56477Z"/>
    <path d="M0 29.2383C0 26.7772 0.8 24.8083 2.4 23.1347C4.1 21.5596 6.1 20.6736 8.6 20.6736C11.2 20.6736 13.2 21.3627 14.8 22.8394L13.6 24.6114C13 24.0207 12.2 23.6269 11.3 23.3316C10.4 23.0363 9.5 22.8394 8.7 22.8394C6.8 22.8394 5.3 23.43 4.1 24.6114C3 25.7927 2.4 27.3679 2.4 29.1399C2.4 31.0104 3 32.5855 4.1 33.8653C5.3 35.1451 6.8 35.7357 8.7 35.7357C9.6 35.7357 10.6 35.5389 11.5 35.1451C12.4 34.7513 13.2 34.2591 13.9 33.5699L15.2 35.2435C13.4 37.0155 11.2 37.9015 8.6 37.9015C6 37.9015 3.9 37.114 2.3 35.4404C0.8 33.7668 0 31.6995 0 29.2383Z"/>
    <path d="M16.8 29.2383C16.8 26.7772 17.6 24.8083 19.2 23.1347C20.8 21.5596 22.9 20.6736 25.4 20.6736C28 20.6736 30 21.3627 31.6 22.8394L30.4 24.6114C29.8 24.0207 29 23.6269 28.1 23.3316C27.2 23.0363 26.3 22.8394 25.5 22.8394C23.6 22.8394 22.1 23.43 20.9 24.6114C19.8 25.7927 19.2 27.3679 19.2 29.1399C19.2 31.0104 19.8 32.5855 20.9 33.8653C22.1 35.1451 23.6 35.7357 25.5 35.7357C26.4 35.7357 27.4 35.5389 28.3 35.1451C29.2 34.7513 30 34.2591 30.7 33.5699L32 35.2435C30.2 37.0155 28 37.9015 25.4 37.9015C22.8 37.9015 20.7 37.114 19.1 35.4404C17.6 33.7668 16.8 31.6995 16.8 29.2383Z"/>
    <path d="M33.6 29.2383C33.6 26.8756 34.4 24.8083 36.1 23.1347C37.7 21.4611 39.8 20.6736 42.3 20.6736C44.8 20.6736 46.9 21.4611 48.5 23.1347C50.1 24.8083 51 26.7772 51 29.2383C51 31.6995 50.2 33.7668 48.5 35.4404C46.8 37.114 44.8 38 42.3 38C39.8 38 37.7 37.114 36.1 35.4404C34.4 33.7668 33.6 31.6995 33.6 29.2383ZM36 29.2383C36 31.1088 36.6 32.6839 37.8 33.9637C39 35.2435 40.5 35.8342 42.3 35.8342C44.1 35.8342 45.6 35.2435 46.8 33.9637C48 32.6839 48.6 31.1088 48.6 29.2383C48.6 27.4663 48 25.8912 46.8 24.7098C45.6 23.5285 44.1 22.8394 42.3 22.8394C40.5 22.8394 39 23.43 37.8 24.7098C36.6 25.8912 36 27.3679 36 29.2383Z"/>
  </symbol>

  <symbol id="phone" viewBox="0 0 14 15">
    <path d="M13.7455 13.0923C13.4909 13.5935 12.9818 13.8441 12.4727 14.0947C11.8364 14.4706 11.3273 14.5959 10.6909 14.5959C9.8 14.5959 8.90909 14.22 8.14545 13.9694C7.50909 13.7188 7 13.4682 6.36364 13.2176C4.58182 12.09 2.54545 10.0853 1.52727 8.45643C1.14545 7.82996 0.890909 7.32878 0.636364 6.70231C0.381818 5.82525 0 5.07349 0 4.07113C0 3.44466 0.127273 2.81819 0.509091 2.19172C0.763636 1.69054 1.01818 1.18936 1.52727 0.938771C1.90909 0.938771 2.54545 0.813477 2.92727 0.813477C3.05455 0.813477 3.05455 0.813477 3.18182 0.813477C3.43636 0.938771 3.56364 1.31465 3.69091 1.56524C3.94545 2.19172 4.32727 2.69289 4.58182 3.31936C4.83636 3.56995 5.09091 3.82054 5.09091 4.07113C5.09091 4.6976 3.30909 5.57466 3.30909 6.07584C3.30909 6.32643 3.56364 6.70231 3.69091 6.9529C4.70909 8.70702 5.98182 9.95997 7.76364 10.9623C8.01818 11.0876 8.4 11.3382 8.65455 11.3382C9.16364 11.3382 10.0545 9.58408 10.6909 9.58408C10.9455 9.58408 11.2 9.83467 11.4545 10.0853C11.9636 10.4611 12.6 10.7117 13.1091 11.0876C13.3636 11.2129 13.7455 11.3382 13.8727 11.5888C13.8727 11.7141 13.8727 11.7141 13.8727 11.8394C14 12.09 13.8727 12.7164 13.7455 13.0923Z"/>
  </symbol>

  <symbol id="leaf" viewBox="0 0 39 37">
    <path d="M5.68662 22.4709C5.68662 22.9568 5.92954 23.4426 5.92954 23.9284C5.92954 25.8718 6.17246 29.0297 6.17246 29.0297H7.38704C7.38704 29.0297 7.38704 23.9284 6.65829 21.2563C5.92954 18.3413 5.68662 12.9971 7.38704 9.11043L6.17246 8.6246C6.17246 8.6246 4.71495 11.5396 4.71495 16.1551C4.71495 19.0701 4.95787 20.2847 5.20078 21.4992C4.22911 20.7705 1.55701 18.3413 1.79993 13.24C2.28577 7.41001 7.38704 2.06581 7.38704 2.06581C7.38704 2.06581 16.375 10.5679 8.35872 20.0417L9.33039 20.7705C9.33039 20.7705 12.9742 16.6409 12.9742 12.0254C12.9742 7.41001 11.0308 3.52332 7.38704 0.365387C7.38704 0.365387 1.07118 6.43834 0.585343 13.7259C0.342425 20.5276 5.4437 22.9568 5.4437 22.9568L5.68662 22.4709Z"/>
    <path d="M18.3183 16.1551C9.33038 18.8272 9.81622 27.5722 10.0591 29.5156C6.9012 32.6735 5.4437 35.5885 5.4437 35.5885L6.41537 36.0743C15.6462 20.7705 29.9784 23.6855 29.9784 23.6855V22.4709C21.2334 21.4993 15.1604 24.9001 11.0308 28.301C10.7879 25.143 12.2454 17.6126 21.4763 16.8838C32.1647 16.6409 37.2659 22.9568 37.2659 22.9568C31.6788 31.9447 25.363 33.1593 21.4763 33.6452C17.3467 34.3739 12.2454 31.4589 12.2454 31.4589L11.7596 32.4306C11.7596 32.4306 16.1321 35.3456 21.7192 34.8597C33.8651 33.4022 38.4805 22.7138 38.4805 22.7138C37.2659 20.2847 28.278 13.7259 18.3183 16.1551Z"/>
  </symbol>

  <symbol id="car" viewBox="0 0 40 32">
    <path d="M6.84767 12.6328L9.01168 10.9016H9.22808C9.87729 10.9016 10.3101 10.4688 10.3101 9.81963C10.3101 9.38683 10.0937 9.17043 9.87729 8.95403V4.40961H8.79528V8.95403C8.36248 9.17043 8.14608 9.38683 8.14608 9.81963V10.036L5.98207 11.7672L6.84767 12.6328Z"/>
    <path d="M39.7406 24.3185V17.3936C39.7406 15.2296 38.875 14.364 38.875 14.364C38.875 14.364 36.711 11.5508 35.4126 9.81961C34.1142 8.08841 32.383 8.08841 32.383 8.08841H25.0254V7.0064C25.0254 5.49159 23.9434 4.40959 22.4285 4.40959H16.1529C14.6381 2.24558 12.0413 0.730774 9.22809 0.730774C4.46727 0.730774 0.788452 4.62599 0.788452 9.38681C0.788452 11.3344 1.43765 13.0656 2.51966 14.5804V24.1021C2.51966 25.6169 3.60166 26.6989 5.11647 26.6989H6.19848V26.9153C6.19848 29.5121 8.36249 31.6761 10.9593 31.6761C13.5561 31.6761 15.7201 29.5121 15.7201 26.9153C15.7201 26.6989 15.7201 26.6989 15.7201 26.6989H22.2121H22.4285C23.0777 26.6989 24.5926 26.6989 26.5402 26.6989V26.9153C26.5402 29.5121 28.7042 31.6761 31.301 31.6761C33.8978 31.6761 36.0618 29.5121 36.0618 26.9153C36.0618 26.6989 36.0618 26.6989 36.0618 26.6989C36.2782 26.6989 36.4946 26.6989 36.4946 26.6989C40.1734 26.9153 39.7406 24.3185 39.7406 24.3185ZM38.6586 16.7444C38.6586 16.7444 38.6586 16.9608 38.6586 17.3936H30.219C29.7862 17.3936 29.3534 16.9608 29.3534 16.528V13.0656C29.3534 12.6328 29.7862 12.2 30.219 12.2H35.8454C36.4946 12.8492 37.1438 13.7148 37.5766 14.364C38.6586 15.6624 38.6586 16.7444 38.6586 16.7444ZM9.22809 2.02918C13.3397 2.02918 16.8021 5.27519 16.8021 9.60321C16.8021 13.9312 13.3397 16.9608 9.22809 16.9608C5.11647 16.9608 1.87046 13.4984 1.87046 9.38681C1.87046 5.27519 5.11647 2.02918 9.22809 2.02918ZM10.7429 30.5941C8.79529 30.5941 7.28048 29.0793 7.28048 27.1317C7.28048 25.1841 8.79529 23.6693 10.7429 23.6693C12.6905 23.6693 14.2053 25.1841 14.2053 27.1317C14.2053 29.0793 12.6905 30.5941 10.7429 30.5941ZM15.0709 25.6169C14.4217 23.8857 12.6905 22.3709 10.7429 22.3709C8.79529 22.3709 7.06408 23.6693 6.41488 25.6169H4.90007C4.25087 25.6169 3.60166 24.9677 3.60166 24.3185V15.6624C5.11647 16.9608 7.06408 17.8264 9.22809 17.8264C13.9889 17.8264 17.6677 13.9312 17.6677 9.38681C17.6677 8.08841 17.2349 6.79 16.8021 5.708H22.4285C23.0777 5.708 23.7269 6.3572 23.7269 7.0064V24.3185C23.7269 24.9677 23.0777 25.6169 22.4285 25.6169H15.0709ZM31.0846 30.5941C29.137 30.5941 27.6222 29.0793 27.6222 27.1317C27.6222 25.1841 29.137 23.6693 31.0846 23.6693C33.0322 23.6693 34.547 25.1841 34.547 27.1317C34.547 29.0793 33.0322 30.5941 31.0846 30.5941ZM36.4946 25.8333H35.629C34.9798 23.8857 33.2486 22.5873 31.301 22.5873C29.137 22.5873 27.4058 23.8857 26.973 25.8333H24.809C25.2418 25.4005 25.4582 24.9677 25.4582 24.3185V8.95401C25.4582 8.95401 30.219 8.95401 32.1666 8.95401C34.1142 8.95401 34.9798 10.2524 34.9798 10.2524C34.9798 10.2524 34.7634 10.6852 35.1962 11.118H30.219C29.137 11.118 28.4878 11.9836 28.4878 12.8492V16.3116C28.4878 17.3936 29.3534 18.0428 30.219 18.0428H38.875C38.875 19.7741 38.875 22.3709 38.875 23.6693C38.6586 26.0497 36.4946 25.8333 36.4946 25.8333Z"/>
  </symbol>

  <symbol id="measure" viewBox="0 0 37 37">
    <path d="M10.5679 7.16711C10.5679 7.65294 11.5396 8.13878 12.9971 8.13878C14.4546 8.13878 15.4263 7.65294 15.4263 7.16711C15.4263 6.68127 14.4546 6.19543 12.9971 6.19543C11.7825 6.19543 10.5679 6.43835 10.5679 7.16711Z"/>
    <path d="M36.8031 16.1551C36.8031 13.7259 34.8597 11.7825 32.4306 11.7825H31.4589H10.0821C10.0821 11.7825 4.25207 12.0254 1.57998 7.41001C1.82289 4.00916 4.49499 1.57998 7.89584 1.57998H17.6126C21.2563 1.57998 23.9284 4.49499 23.9284 7.89584V9.11043H25.143V8.13876C25.143 3.76624 21.7422 0.365387 17.3696 0.365387H8.13876C3.76624 0.365387 0.365387 3.76624 0.365387 8.13876V11.2967V11.7825V19.5559C0.365387 23.9284 3.76624 27.3293 8.13876 27.3293H9.83919V26.1147H7.89584C4.25207 26.1147 1.57998 23.1997 1.57998 19.7988V11.7825V11.2967V9.59627C2.30873 10.5679 4.73791 12.9971 9.83919 12.9971C17.1267 12.9971 31.216 12.9971 31.216 12.9971H32.4306C34.131 12.9971 35.3456 14.2117 35.3456 15.9121V17.3696V17.8555C35.3456 19.5559 34.131 20.7705 32.4306 20.7705H32.1876H16.8838C14.4546 20.7705 12.5113 22.7138 12.5113 25.143V31.7018C12.5113 34.131 14.4546 36.0743 16.8838 36.0743H32.4306C34.8597 36.0743 36.8031 34.131 36.8031 31.7018V25.143C36.8031 25.143 36.8031 19.313 36.8031 17.6126C36.8031 17.6126 36.8031 17.6126 36.8031 17.3696V16.1551ZM35.3456 32.1876C35.3456 33.8881 34.131 35.1027 32.4306 35.1027H16.6409C14.9405 35.1027 13.7259 33.8881 13.7259 32.1876V25.143C13.7259 23.4426 14.9405 22.228 16.6409 22.228H21.2563V26.3576H22.4709V22.228H28.058H30.2443V26.3576H31.4589V22.228H32.4306C33.6451 22.228 34.8597 21.7422 35.5885 21.0134V32.1876H35.3456Z"/>
  </symbol>

  <symbol id="human" viewBox="0 0 65 69">
    <path d="M60.03 19.665C60.72 18.975 61.41 18.285 61.755 17.595C64.17 14.49 63.825 13.11 61.41 11.04C58.995 8.97 55.2 12.075 55.2 12.075C55.2 12.075 54.855 12.42 54.51 12.765C50.715 9.315 45.885 6.555 40.365 5.175C38.295 2.07 35.19 0 31.74 0C27.945 0 24.84 2.415 22.77 5.52C18.285 6.9 14.145 9.315 10.695 12.42C10.005 12.075 8.625 10.695 6.9 10.35C4.485 10.005 2.07 11.73 1.725 14.145C1.725 15.525 3.105 17.595 4.83 19.665C1.725 24.495 0 30.015 0 36.225C0 53.82 14.49 68.31 32.43 68.31C38.64 68.31 44.85 66.585 49.68 63.48L48.645 61.065C44.16 49.68 45.195 42.435 45.54 38.985C46.575 35.19 50.37 30.015 52.44 27.255C53.82 25.53 55.89 23.805 57.96 21.735C60.72 25.875 62.1 30.705 62.1 36.225C62.1 44.16 58.65 51.405 53.475 56.925L55.545 58.65C61.41 52.785 64.86 44.85 64.86 36.225C64.86 30.015 63.135 24.495 60.03 19.665ZM31.74 2.76C36.225 2.76 39.675 6.9 39.675 12.075C39.675 17.25 36.225 21.39 31.74 21.39C27.255 21.39 23.805 17.595 23.805 12.075C23.805 6.555 27.255 2.76 31.74 2.76ZM31.74 24.15C37.605 24.15 42.435 18.63 42.435 12.075C42.435 10.695 42.09 9.66 41.745 8.28C45.885 9.66 49.335 11.73 52.44 14.49C49.68 16.905 45.54 20.01 43.47 21.39C40.365 23.805 35.19 26.22 31.05 26.22C26.91 26.22 24.84 24.495 21.735 23.115C18.975 21.735 14.49 16.56 12.42 14.49C15.18 12.075 18.285 10.35 21.39 8.97C21.39 10.005 21.045 11.04 21.045 12.075C21.045 18.975 25.875 24.15 31.74 24.15ZM2.76 36.225C2.76 31.05 4.14 26.22 6.555 21.735C7.245 22.425 7.59 22.77 7.59 22.77C7.59 22.77 16.215 32.775 17.94 35.19C19.665 37.605 17.595 39.33 16.215 45.54C15.18 50.37 15.18 56.925 15.18 60.03C7.59 54.51 2.76 45.885 2.76 36.225ZM56.235 19.665C54.855 21.045 50.025 25.185 45.885 31.74C41.745 38.295 42.435 43.47 42.78 47.265C43.125 51.06 44.16 54.51 44.505 55.89C44.85 56.925 46.23 60.72 46.575 61.755C42.435 63.825 37.605 65.205 32.775 65.205C27.255 65.205 22.425 63.825 17.94 61.41C17.94 49.68 18.63 47.955 18.975 46.23C18.975 44.505 20.01 41.055 21.045 38.295C21.735 35.88 20.7 33.81 19.665 32.775C18.63 31.74 8.625 19.665 6.9 17.25C4.83 14.835 4.485 13.8 6.21 13.11C7.935 12.075 12.42 17.595 14.49 20.01C16.215 22.425 24.15 28.98 31.395 28.635C38.64 28.29 43.815 24.495 45.885 23.115C47.61 21.735 56.58 14.49 57.96 13.455C59.34 12.42 61.065 13.455 60.72 14.49C60.375 15.525 57.615 18.285 56.235 19.665Z"/>
  </symbol>

  <symbol id="loving" viewBox="0 0 64 64">
    <path d="M32 0C14.4314 0 0 14.4314 0 32C0 49.5686 14.4314 64 32 64C49.5686 64 64 49.5686 64 32C64 14.4314 49.5686 0 32 0ZM32 61.4902C15.6863 61.4902 2.5098 48.3137 2.5098 32C2.5098 15.6863 15.6863 2.5098 32 2.5098C48.3137 2.5098 61.4902 15.6863 61.4902 32C61.4902 48.3137 48.3137 61.4902 32 61.4902Z"/>
    <path d="M32 48.6275C21.0196 48.6275 14.4314 38.902 14.4314 38.902L12.2353 40.4706C21.0196 51.7647 32 51.451 32 51.451C32 51.451 42.9804 52.0785 51.7647 40.4706L49.5686 38.902C49.5686 38.902 42.9804 48.6275 32 48.6275Z"/>
    <path d="M21.3333 35.451C28.8627 32 30.1176 27.6078 30.1176 25.4118C30.1176 22.902 28.549 20.0784 25.7255 20.0784C22.5882 20.0784 21.3333 21.6471 21.3333 21.6471C21.3333 21.6471 20.0784 20.0784 16.9412 20.0784C14.1176 20.0784 12.549 23.2157 12.549 25.4118C12.549 27.6078 13.8039 32 21.3333 35.451ZM21.3333 24.7843C22.902 22.2745 27.2941 21.9608 27.6078 25.098C27.6078 29.4902 21.3333 32.6275 21.3333 32.6275C21.3333 32.6275 15.0588 29.4902 15.0588 25.098C15.3725 21.9608 19.7647 22.2745 21.3333 24.7843Z"/>
    <path d="M42.6667 35.451C50.1961 32 51.451 27.6078 51.451 25.7255C51.451 23.2157 49.8824 20.3922 47.0588 20.3922C43.9216 20.3922 42.6667 21.9608 42.6667 21.9608C42.6667 21.9608 41.4118 20.3922 38.2745 20.3922C35.451 20.3922 33.8824 23.5294 33.8824 25.7255C33.8824 27.6078 35.1373 32 42.6667 35.451ZM42.6667 24.7843C44.2353 22.2745 48.6274 21.9608 48.9412 25.098C48.9412 29.4902 42.6667 32.6274 42.6667 32.6274C42.6667 32.6274 36.3922 29.4902 36.3922 25.098C36.7059 21.9608 41.098 22.2745 42.6667 24.7843Z"/>
  </symbol>

  <symbol id="biceps" viewBox="0 0 64 54">
     <path d="M49.9372 8.44973C43.9103 8.44973 36.1614 12.7547 36.4484 21.6515C36.4484 21.6515 24.6816 17.9206 21.2377 30.2614C21.2377 30.2614 19.2287 25.9565 16.6457 23.9475C13.7758 21.9385 10.3318 16.7726 10.0448 14.1896C10.3318 12.7547 10.6188 12.7547 11.1928 12.4677C11.4798 12.4677 11.4798 14.7636 14.0628 15.0506C16.3587 14.7636 16.9327 14.1896 17.7937 13.0417L20.3767 10.1717C20.3767 10.1717 22.9596 6.72776 20.6637 5.00578C18.6547 2.99681 14.9238 -0.734128 10.3318 0.126858C7.74888 0.700849 5.73991 2.70982 5.73991 2.70982L2.29596 5.86677C2.29596 5.86677 0 8.16273 0 12.7547C0 16.7726 0.860987 23.3735 0.860987 23.3735C0.860987 23.3735 1.72197 28.5394 2.00897 30.2614C2.29596 31.9834 4.59193 42.0282 10.0448 47.4811C13.4888 51.4991 15.4978 53.221 17.2197 53.508C20.0897 53.508 21.5247 51.7861 23.8206 51.7861C26.1166 51.7861 28.4126 53.508 33.2915 53.508C38.1704 53.508 49.0762 50.6381 53.6682 36.5753C57.9731 34.8533 64 31.6964 64 22.2255C64 12.7547 55.6771 8.44973 49.9372 8.44973ZM51.9462 34.8533C48.7892 47.4811 38.7444 50.9251 33.8655 51.4991C29.2735 51.4991 26.6906 49.7771 23.2466 49.7771C21.2377 49.7771 18.3677 51.4991 17.5067 51.4991C16.6457 51.4991 14.3498 49.4901 11.4798 46.3331C8.60987 43.1762 7.46188 40.3062 6.3139 38.0103C5.16592 35.7143 3.15695 26.5304 3.15695 26.5304C3.15695 26.5304 2.29596 17.3466 2.29596 13.3287C2.29596 9.59771 4.01794 7.30175 4.01794 7.30175C4.01794 7.30175 6.3139 5.29278 8.60987 3.28381C11.1928 1.27484 14.3498 2.70982 14.3498 2.70982C14.3498 2.70982 17.5067 4.71879 18.6547 5.86677C20.0897 7.01475 18.6547 8.16273 18.6547 8.16273C18.6547 8.16273 15.4978 12.1807 14.3498 12.4677C12.9148 12.7547 12.6278 9.31072 12.6278 9.31072C11.1928 9.88471 8.89686 10.4587 8.03587 13.0417C7.17489 16.1986 11.7668 22.7995 15.2108 25.9565C18.3677 29.1134 20.3767 34.2793 20.3767 34.2793L22.9596 33.4183C22.9596 33.4183 22.6726 27.3914 27.8386 24.2345C33.5785 21.0775 38.7444 25.3825 38.7444 25.3825C37.0224 11.0327 49.6502 10.7457 50.5112 10.7457C51.3722 10.7457 61.417 11.6067 62.278 21.6515C61.704 33.1313 51.9462 34.8533 51.9462 34.8533Z"/>
     </symbol>

    <symbol id="vk" viewBox="0 0 24 14">  
      <path d="M23.8692 12.5259C23.8692 12.4605 23.8038 12.3951 23.8038 12.3951C23.4114 11.6757 22.5613 10.6948 21.3842 9.64849C20.861 9.12533 20.5341 8.79835 20.4033 8.60216C20.1417 8.27519 20.0763 7.94821 20.2071 7.62124C20.3379 7.35966 20.6649 6.8365 21.3188 5.98636C21.6458 5.5286 21.9074 5.20162 22.1035 4.94004C23.5422 3.04358 24.1962 1.80108 24 1.27792L23.9346 1.14712C23.8692 0.950939 23.7384 0.885544 23.5422 0.820149C23.3461 0.754754 23.0845 0.754754 22.7575 0.820149H19.1608C19.0954 0.820149 19.03 0.820149 18.8992 0.820149C18.7684 0.820149 18.7684 0.885545 18.7684 0.885545H18.703L18.6376 0.95094C18.5722 0.95094 18.5722 1.01633 18.5068 1.08173C18.4414 1.14713 18.4414 1.21252 18.376 1.27792C17.9837 2.25884 17.5259 3.23977 17.0681 4.0899C16.7411 4.61306 16.4796 5.07083 16.218 5.4632C15.9564 5.85557 15.7602 6.11715 15.564 6.31334C15.3678 6.50952 15.2371 6.64031 15.1063 6.7711C14.9755 6.90189 14.8447 6.90189 14.7793 6.90189C14.7139 6.90189 14.6485 6.8365 14.5831 6.8365C14.4523 6.7711 14.3869 6.64031 14.3215 6.50952C14.2561 6.37873 14.1907 6.24794 14.1907 6.05176C14.1907 5.85557 14.1253 5.65939 14.1253 5.5286C14.1253 5.39781 14.1253 5.20162 14.1253 4.94004C14.1253 4.67846 14.1253 4.48227 14.1253 4.41688C14.1253 4.0899 14.1253 3.76293 14.1253 3.37056C14.1253 2.97819 14.1253 2.71661 14.1253 2.52042C14.1253 2.32424 14.1253 2.06266 14.1253 1.80108C14.1253 1.5395 14.1253 1.34331 14.0599 1.21252C14.0599 1.08173 13.9946 0.950939 13.9292 0.820149C13.8638 0.689359 13.7984 0.558569 13.6676 0.493174C13.5368 0.427779 13.406 0.362384 13.2752 0.296989C12.8174 0.166199 12.2943 0.166199 11.5749 0.166199C10.0055 0.166199 9.02452 0.231594 8.56676 0.493174C8.37057 0.558569 8.23978 0.689359 8.10899 0.885545C7.9782 1.08173 7.91281 1.14712 8.0436 1.21252C8.56676 1.27792 8.89373 1.4741 9.08992 1.73568L9.15531 1.86647C9.22071 1.99726 9.2861 2.19345 9.3515 2.45503C9.41689 2.71661 9.41689 3.04358 9.48229 3.37056C9.54768 3.95911 9.54768 4.48227 9.48229 4.94004C9.41689 5.39781 9.41689 5.72478 9.3515 5.92097C9.2861 6.18255 9.2861 6.37873 9.15531 6.50952C9.08992 6.64031 9.02452 6.7711 9.02452 6.7711C9.02452 6.8365 8.95913 6.8365 8.95913 6.8365C8.82834 6.90189 8.76294 6.90189 8.63215 6.90189C8.50136 6.90189 8.37057 6.8365 8.23978 6.70571C8.0436 6.57492 7.91281 6.44413 7.71662 6.24794C7.52044 6.05176 7.32425 5.79018 7.12807 5.39781C6.93188 5.00543 6.6703 4.61306 6.40872 4.0899L6.21253 3.69753C6.08174 3.43595 5.88556 3.10898 5.68937 2.65121C5.49319 2.19345 5.297 1.80108 5.10082 1.34331C5.03542 1.21252 4.90463 1.08173 4.77384 0.95094H4.70845C4.64305 0.885545 4.57766 0.885544 4.51226 0.820149C4.44687 0.820149 4.31608 0.754755 4.25068 0.754755H0.850136C0.457766 0.754755 0.196185 0.885544 0.0653951 1.01633V1.08173C0 1.14713 0 1.21252 0 1.27792C0 1.34331 0 1.4741 0.0653951 1.60489C0.588556 2.782 1.11172 3.89372 1.70027 5.00544C2.28883 6.11715 2.81199 6.96729 3.20436 7.62124C3.66213 8.27519 4.0545 8.92914 4.51226 9.5177C4.97003 10.1063 5.23161 10.4986 5.42779 10.6294C5.55858 10.8256 5.68937 10.891 5.75477 11.0218L6.08174 11.3488C6.27793 11.5449 6.60491 11.8065 6.93188 12.0681C7.32425 12.3297 7.71662 12.5913 8.23978 12.9182C8.69755 13.1798 9.2861 13.4414 9.87466 13.5722C10.5286 13.7684 11.1172 13.8338 11.7057 13.7684H13.1444C13.406 13.7684 13.6676 13.6376 13.7984 13.5068L13.8638 13.4414C13.9292 13.376 13.9292 13.3106 13.9292 13.1798C13.9292 13.049 13.9946 12.9836 13.9946 12.8528C13.9946 12.5259 13.9946 12.1989 14.0599 11.8719C14.1253 11.6103 14.1907 11.3488 14.2561 11.218C14.3215 11.0872 14.4523 10.9564 14.5177 10.8256C14.6485 10.6948 14.7139 10.6948 14.7139 10.6294C14.7793 10.6294 14.7793 10.564 14.8447 10.564C15.0409 10.4986 15.3025 10.564 15.564 10.7602C15.8256 10.9564 16.0872 11.218 16.3488 11.4795C16.6104 11.7411 16.8719 12.0681 17.1989 12.4605C17.5259 12.7875 17.8529 13.1144 18.049 13.2452L18.3106 13.376C18.5068 13.5068 18.703 13.5722 18.9646 13.6376C19.2262 13.703 19.4877 13.7684 19.6839 13.703L22.8883 13.6376C23.2153 13.6376 23.4768 13.5722 23.6076 13.5068C23.8038 13.376 23.8692 13.3106 23.9346 13.1798C24 13.049 24 12.9182 23.9346 12.7221C23.9346 12.7221 23.9346 12.5913 23.8692 12.5259Z"/>
    </symbol>   

    <symbol id="fb" viewBox="0 0 24 24">
      <path d="M24 22.6921C24 23.4114 23.4114 24 22.6921 24H16.545V14.7139H19.6839L20.1417 11.1172H16.545V8.82834C16.545 7.78202 16.8065 7.06267 18.3106 7.06267H20.2071V3.79292C19.8801 3.72752 18.7684 3.66213 17.3951 3.66213C14.6485 3.66213 12.752 5.3624 12.752 8.43597V11.1172H9.61308V14.7139H12.752V24H1.3079C0.588556 24 0 23.4114 0 22.6921V1.3079C0 0.588556 0.588556 0 1.3079 0H22.6921C23.4114 0 24 0.588556 24 1.3079V22.6921Z"/>
    </symbol>

    <symbol id="ig" viewBox="0 0 20 20">
      <path d="M17.6022 0H2.39782C1.08992 0 0 1.03542 0 2.34332V17.6567C0 18.9646 1.08992 20 2.39782 20H17.6022C18.9101 20 20 18.9646 20 17.6567V2.34332C20 1.03542 18.9101 0 17.6022 0ZM14.3869 3.10627C14.3869 2.77929 14.6594 2.50681 14.9864 2.50681H16.8937C17.2207 2.50681 17.4932 2.77929 17.4932 3.10627V4.95913C17.4932 5.2861 17.2207 5.55858 16.8937 5.55858H15.0409C14.7139 5.55858 14.4414 5.2861 14.4414 4.95913L14.3869 3.10627ZM10.0272 6.15804C12.1526 6.15804 13.8965 7.84741 13.8965 9.97275C13.8965 12.0981 12.1526 13.7875 10.0272 13.7875C7.90191 13.7875 6.15804 12.0981 6.15804 9.97275C6.15804 7.90191 7.90191 6.15804 10.0272 6.15804ZM18.0926 17.4932C18.0926 17.8202 17.8202 18.0926 17.4932 18.0926H2.50681C2.17984 18.0926 1.90736 17.8202 1.90736 17.4932V8.11989H4.35967C4.0327 8.61035 3.92371 9.48229 3.92371 10.0272C3.92371 13.3515 6.6485 16.0763 10.0272 16.0763C13.406 16.0763 16.1308 13.3515 16.1308 10.0272C16.1308 9.48229 16.0763 8.61035 15.6403 8.11989H18.1471L18.0926 17.4932Z"/>
    </symbol>

    <symbol id="tw" viewBox="0 0 24 21">
      <path d="M23.346 0.419627C22.3651 1.00818 21.3188 1.40055 20.2071 1.66213C19.2916 0.681207 18.049 0.0926514 16.6104 0.0926514C13.8638 0.0926514 11.7057 2.38148 11.7057 5.12807C11.7057 5.52044 11.7711 5.91281 11.8365 6.30519C7.71662 6.0436 4.11989 4.01636 1.70027 0.942788C1.3079 1.66213 1.04632 2.57766 1.04632 3.4932C1.04632 5.25886 1.89646 6.76295 3.26975 7.67848C2.48501 7.67848 1.70027 7.4169 1.04632 7.02453V7.15532C1.04632 9.57494 2.74659 11.6676 4.97003 12.1253C4.57766 12.2561 4.11989 12.3215 3.66213 12.3215C3.33515 12.3215 3.00817 12.3215 2.74659 12.2561C3.40054 14.2834 5.16621 15.7221 7.32425 15.7875C5.62398 17.1608 3.53133 17.9455 1.17711 17.9455C0.784741 17.9455 0.392371 17.9455 0 17.8801C2.15804 19.3188 4.77384 20.1689 7.52044 20.1689C16.6104 20.1689 21.515 12.4523 21.515 5.78202C21.515 5.58584 21.515 5.32426 21.515 5.12807C22.4959 4.40873 23.346 3.55859 24 2.51227C23.1499 2.90464 22.1689 3.16622 21.188 3.29701C22.1689 2.57767 22.9537 1.59674 23.346 0.419627Z"/>
    </symbol>

    <symbol id="bar" viewBox="0 0 46 46" fill="currentColor">
       <path d="M44.6903 7.1641L38.8069 1.27893C37.9858 0.457505 36.8943 0 35.7301 0C34.5659 0 33.4641 0.457505 32.6429 1.27893C31.7802 2.14195 31.3436 3.29611 31.3644 4.46067C30.2002 4.43987 29.0464 4.87658 28.1837 5.7396C27.3209 6.60262 26.8843 7.75678 26.9051 8.92134C25.7409 8.89015 24.5871 9.33725 23.7244 10.2003C22.8616 11.0633 22.425 12.2175 22.4458 13.382C21.2816 13.3612 20.1278 13.7979 19.2651 14.6609L4.71265 29.2179L0.315736 33.6162C0.191001 33.7306 0.0974494 33.8865 0.0454764 34.0529C0.0454764 34.0737 0.0350818 34.0841 0.0350818 34.1049C-0.0272858 34.344 -0.00649662 34.5832 0.0974494 34.7911C0.118239 34.8431 0.149422 34.8847 0.170212 34.9367C0.305341 35.1343 0.502839 35.2902 0.752309 35.363L4.31766 36.382L5.33633 39.9485C5.42988 40.2916 5.70014 40.5619 6.05355 40.6659L9.6189 41.6849L10.6376 45.2514C10.7103 45.5009 10.8663 45.6985 11.0741 45.8336C11.1157 45.8648 11.1573 45.8856 11.2093 45.9064C11.3444 45.9688 11.4899 46 11.6355 46C11.729 46 11.8226 45.9896 11.9265 45.9584C12.1136 45.9064 12.2695 45.8128 12.3943 45.6777L16.7912 41.2794L23.1007 34.9679C23.2254 35.0927 23.371 35.1759 23.5373 35.2278C23.9011 35.3318 24.2961 35.2382 24.5663 34.9679L32.0816 27.4503C32.487 27.0448 32.487 26.3897 32.0816 25.9842L31.9881 25.8906C32.4247 25.1731 32.6325 24.3517 32.6222 23.5303C33.7863 23.5511 34.9401 23.1144 35.8029 22.2514C36.6656 21.3883 37.1022 20.2342 37.0814 19.0696C38.2456 19.1008 39.3994 18.6537 40.2622 17.7907C41.1249 16.9277 41.5615 15.7735 41.5407 14.609C42.7049 14.6297 43.8587 14.193 44.7215 13.33C45.5426 12.5086 46 11.4064 46 10.2419C45.9688 9.0877 45.5218 7.98553 44.6903 7.1641ZM12.1344 42.9638L11.4484 40.5411C11.3548 40.198 11.0845 39.9277 10.7311 39.8237L7.16578 38.8151L6.14711 35.2486C6.05356 34.9055 5.7833 34.6352 5.42988 34.5312L3.00794 33.8449L5.42988 31.4222L14.5459 40.5411L12.1344 42.9638ZM24.4208 32.1501L21.9781 20.8476C21.8533 20.2862 21.3024 19.9326 20.7411 20.047C20.1798 20.1718 19.8264 20.7229 19.9407 21.2844L22.4043 32.6908L16.022 39.075L6.90591 29.9561L19.9927 16.8653L29.8468 26.7224L24.4208 32.1501ZM43.2246 11.8639C42.5282 12.5606 41.468 12.7373 40.5948 12.2902C40.1998 12.0927 39.7113 12.1655 39.3994 12.4878C39.0876 12.8101 39.0044 13.2884 39.2019 13.6835C39.6385 14.5674 39.4618 15.6279 38.7758 16.3142C38.0897 17.0005 37.0191 17.1876 36.1459 16.7405C35.7509 16.5429 35.2624 16.6157 34.9505 16.9381C34.6387 17.25 34.5555 17.7387 34.753 18.1338C35.1896 19.0176 35.0129 20.0782 34.3269 20.7645C33.6304 21.4611 32.5702 21.6379 31.697 21.1908C31.302 20.9932 30.8135 21.066 30.5017 21.3883C30.1898 21.7003 30.1067 22.189 30.3042 22.5841C30.5744 23.1352 30.616 23.7486 30.4289 24.3101L21.6662 15.5448C22.2276 15.368 22.8408 15.3992 23.3917 15.6695C23.7867 15.8671 24.2753 15.7943 24.5871 15.472C24.899 15.1496 24.9821 14.6713 24.7846 14.2762C24.348 13.3924 24.5248 12.3318 25.2108 11.6456C25.8968 10.9593 26.9675 10.7722 27.8406 11.2193C28.2356 11.4168 28.7242 11.344 29.036 11.0217C29.3479 10.7098 29.431 10.2211 29.2335 9.82595C28.7969 8.94213 28.9736 7.88155 29.6597 7.1953C30.3561 6.49864 31.4164 6.32188 32.2895 6.76899C32.6845 6.96655 33.1731 6.89376 33.4849 6.57143C33.7967 6.25949 33.8799 5.7708 33.6824 5.37568C33.2458 4.49186 33.4225 3.43128 34.1086 2.74503C34.5452 2.30832 35.1169 2.07957 35.7301 2.07957C36.3434 2.07957 36.9151 2.31872 37.3517 2.74503L43.2246 8.6302C43.6612 9.06691 43.8899 9.63879 43.8899 10.2523C43.8899 10.8553 43.6508 11.4376 43.2246 11.8639Z"/>
    </symbol>

    <symbol id="grape" viewBox="0 0 24 24" fill="currentColor">
      <path d="M16.443 12.7139C18.6035 11.225 18.0963 7.51466 15.5084 6.80076C15.3252 6.7491 14.5973 6.77728 14.508 6.69274C14.3624 6.55184 14.2732 5.88022 14.1605 5.67356C13.8364 5.07708 13.3198 4.59802 12.7139 4.30683C11.4458 3.69626 9.91467 3.95928 8.97064 5.01603C8.05948 3.7855 6.47201 3.40976 5.10058 4.072C4.49001 4.36319 3.96398 4.83755 3.62582 5.41994C3.45205 5.72053 3.32524 6.0446 3.25479 6.38746C3.17494 6.79607 3.27827 7.1718 3.24539 7.57102C3.22191 7.84812 3.28766 7.79176 2.98708 7.90448C2.818 7.97023 2.65361 8.05008 2.49393 8.14401C2.14637 8.35536 1.84578 8.63247 1.60156 8.95654C1.13659 9.5765 0.897057 10.3608 0.92054 11.1358C0.929934 11.488 1.00038 11.8403 1.1225 12.1738C1.19295 12.3663 1.28688 12.5542 1.39021 12.7327C1.43717 12.8078 1.5452 12.9205 1.56868 12.9957C1.63913 13.2117 1.63913 13.0379 1.5358 13.2446C1.33854 13.6297 0.9769 13.9068 0.803123 14.3295C0.62465 14.7569 0.54011 15.2172 0.544806 15.6822C0.549503 16.119 0.63874 16.5511 0.80782 16.9503C0.887664 17.1428 1.01917 17.3072 1.10371 17.4951C1.17416 17.6501 1.23052 17.636 1.19295 17.7675C1.17416 17.8286 0.911147 18.0211 0.873574 18.0634C0.300579 18.6974 -0.00470432 19.5334 -7.64548e-06 20.3741C0.0140824 22.1918 1.50762 23.7135 3.34872 23.6195C4.17533 23.5773 4.97377 23.2109 5.54207 22.6051C5.62661 22.5158 5.85674 22.079 5.95537 22.0462C6.03522 22.0227 6.44383 22.234 6.52837 22.2575C6.96046 22.3702 7.41604 22.3843 7.85753 22.3045C8.67944 22.1589 9.43091 21.6892 9.91937 21.0129C10.0556 20.8297 10.1307 20.5996 10.2622 20.4211C10.2951 20.3788 10.3186 20.2004 10.3609 20.1769C10.3796 20.1675 10.6661 20.2614 10.7272 20.2708C11.2063 20.3648 11.7088 20.3413 12.1832 20.2098C12.681 20.0689 13.146 19.8059 13.5264 19.4536C13.6297 19.355 13.9444 18.8477 14.0571 18.8055C14.1839 18.7632 14.6113 18.9511 14.7616 18.9698C15.7573 19.0779 16.7671 18.6833 17.4528 17.9601C18.9323 16.382 18.4203 13.6391 16.443 12.7139C16.5699 12.6246 16.6967 12.5401 16.8235 12.4509C16.6967 12.5401 16.5699 12.6246 16.443 12.7139ZM13.8035 9.35106C13.9209 9.21485 14.0383 9.05517 14.1182 8.89548C14.1464 8.84851 14.1699 8.80155 14.1933 8.74988C14.3061 8.51975 14.4 8.28491 14.4564 8.03599C14.5362 7.69313 14.4657 7.64616 14.8039 7.61329C15.128 7.58511 15.5178 7.74479 15.7855 7.90448C16.3256 8.22855 16.6779 8.79215 16.8188 9.39802C16.955 9.9898 16.8939 10.6379 16.6121 11.1781C16.4618 11.4693 16.2458 11.7229 15.9828 11.9154C15.8935 11.9812 15.1092 12.3569 15.1092 12.2724C15.1092 12.2583 15.1092 12.2395 15.1092 12.2254C15.1139 12.1174 15.1092 12 15.0998 11.892C15.0998 11.8732 15.0951 11.8591 15.0951 11.8403C15.0951 11.8403 15.0951 11.8356 15.0951 11.8309C14.9965 10.8728 14.508 9.9945 13.7143 9.44029C13.7472 9.41681 13.7753 9.38393 13.8035 9.35106C13.8176 9.33697 13.7753 9.38393 13.8035 9.35106C13.9209 9.21485 13.7753 9.38393 13.8035 9.35106ZM13.7378 10.746C13.7472 10.7554 13.7519 10.7648 13.7565 10.7741C13.874 10.9385 13.9632 11.117 14.0383 11.3002C14.0477 11.3237 14.0524 11.3424 14.0618 11.3659C14.0665 11.3753 14.0665 11.3847 14.0712 11.3941C14.0759 11.4082 14.0806 11.4223 14.0853 11.4364C14.137 11.5867 14.1605 11.7464 14.1839 11.9013C14.1839 11.9248 14.1886 11.9436 14.1886 11.9671C14.1886 11.9765 14.1886 11.9906 14.1933 12C14.1933 12.0235 14.198 12.0422 14.198 12.0657C14.198 12.0704 14.198 12.0751 14.198 12.0798C14.2074 12.2818 14.2027 12.5213 14.137 12.7139C14.1323 12.7327 14.1323 12.7514 14.1276 12.7655C13.7941 13.5734 13.2775 14.292 12.371 14.4845C11.8074 14.6066 11.1264 14.5033 10.6567 14.1511C10.6192 14.1276 10.5816 14.0994 10.5487 14.0759C9.5859 13.3432 9.40743 12.0235 9.98042 10.9902C10.5722 9.91935 11.6524 9.60468 12.7702 9.98041C12.7937 9.9898 12.8172 10.0039 12.8407 10.0133C12.8642 10.0227 12.8877 10.0368 12.9111 10.0462C12.9158 10.0462 12.9205 10.0509 12.9252 10.0509C12.991 10.0837 13.0567 10.1213 13.1178 10.1636C13.1742 10.2012 13.2305 10.2387 13.2869 10.281C13.3385 10.3186 13.3855 10.3608 13.4325 10.4078C13.4419 10.4172 13.4513 10.4219 13.456 10.4313C13.5217 10.483 13.7143 10.7178 13.7378 10.746C13.7425 10.7554 13.7096 10.7084 13.7378 10.746ZM8.81565 11.2532C8.78747 11.3565 8.76398 11.4646 8.7452 11.5679C8.07827 11.5867 7.49119 11.2908 7.03091 10.8258C6.74441 10.5111 6.54715 10.126 6.45792 9.708C6.02113 8.56202 7.08257 7.1718 8.14872 6.90409C8.02661 8.07356 8.56672 9.27121 9.52954 9.95223C9.19608 10.328 8.95185 10.7788 8.81565 11.2579C8.83443 11.1922 8.85322 11.1264 8.87201 11.0559C8.85322 11.1264 8.83443 11.1875 8.81565 11.2532C8.78747 11.3565 8.95185 10.7695 8.81565 11.2532ZM9.49667 14.3436C8.96594 14.7194 8.48688 15.3017 8.30371 15.9358C8.22856 15.917 8.15342 15.8982 8.07827 15.87C7.86692 15.7996 7.63678 15.7855 7.41604 15.7808C7.3268 15.7808 7.23757 15.7808 7.14833 15.7855C7.07788 15.7996 7.01213 15.8043 6.94168 15.8043C6.88531 15.809 6.82895 15.8137 6.77729 15.8278C6.77259 15.8278 6.7679 15.8278 6.7679 15.8278C6.74441 15.8372 6.72093 15.8419 6.69745 15.8419C5.93189 15.4239 5.42465 14.5597 5.46692 13.6814V13.6767C5.46692 13.6532 5.46692 13.6297 5.47162 13.6062C5.47162 13.6015 5.47162 13.6015 5.47162 13.5968C5.47162 13.5781 5.47631 13.5593 5.47631 13.5452V13.5405C5.48101 13.4747 5.48571 13.3855 5.50449 13.3197C5.51858 13.2305 5.54207 13.1413 5.56555 13.0567C5.56555 13.052 5.56555 13.052 5.57025 13.0473C5.57025 13.0426 5.57494 13.0379 5.57494 13.0332C5.62191 12.8736 5.69236 12.7327 5.76281 12.5824C5.80038 12.5166 5.83796 12.4509 5.88492 12.3851C6.00704 12.1972 6.16203 12.0282 6.3405 11.8873C6.39216 11.8356 6.44383 11.7933 6.50958 11.7604C6.52837 11.7464 6.54715 11.7323 6.56594 11.7229C6.58003 11.7135 6.59412 11.7041 6.60821 11.6994C7.1859 12.2113 7.92328 12.4931 8.69353 12.4931H8.70762C8.72171 12.6716 8.7405 12.9299 8.82504 13.0943C8.83443 13.1272 8.84383 13.1601 8.85792 13.1976C8.85792 13.2023 8.86261 13.2023 8.86261 13.207C8.87201 13.2399 8.8861 13.2728 8.89549 13.3104C9.027 13.6861 9.23365 14.0383 9.49667 14.3436ZM9.33698 6.09626C9.33698 6.09157 9.34167 6.08687 9.34167 6.08217V6.07748C10.4595 4.02973 13.6016 4.94558 13.6297 7.21407C13.6297 7.21877 13.6297 7.22346 13.6297 7.22816V7.23286C13.6297 7.77767 13.4419 8.3037 13.1131 8.7311C13.1084 8.73579 13.1084 8.73579 13.1037 8.74049C13.0286 8.83912 12.9393 8.92836 12.8501 9.0129C12.2301 8.81094 11.3753 8.77337 10.7742 9.07395C10.6849 9.10683 10.3421 9.32757 10.2669 9.32288C10.1448 9.31818 9.95694 9.11622 9.8724 9.04577C9.59999 8.81564 9.38395 8.51975 9.24304 8.19098C9.24304 8.18628 9.23835 8.18158 9.23835 8.18158C8.95655 7.51466 9.0223 6.65986 9.31819 6.11505C9.29471 6.17141 9.29941 6.16202 9.33698 6.09626C9.33698 6.09157 9.26653 6.22777 9.33698 6.09626ZM6.41095 4.64029C7.25166 4.64029 8.02191 5.11935 8.42113 5.87082C8.41643 5.88022 8.41643 5.88491 8.41173 5.89431C8.40704 5.9037 8.40234 5.91779 8.39764 5.92718C6.7585 6.08217 5.50449 7.54753 5.48101 9.17258C5.29314 9.09274 5.10997 8.97532 4.95498 8.83912C4.9362 8.82503 4.92211 8.81094 4.90332 8.79685C3.21252 7.52405 4.40547 4.64029 6.41095 4.64029ZM3.63991 8.67943C3.64461 8.68413 3.64461 8.68883 3.64931 8.69352C3.70567 8.79215 3.79021 8.94714 3.87475 9.03168C3.88884 9.05047 3.89823 9.06456 3.91232 9.08335C3.92171 9.09274 3.93111 9.10683 3.9405 9.11622C3.95459 9.13031 3.96398 9.1491 3.97807 9.16319C4.227 9.46378 4.55577 9.75027 4.91271 9.92405C5.10058 10.0227 5.48101 10.0696 5.62661 10.2012C5.7769 10.3327 5.87553 10.807 5.99295 10.9949C5.83326 11.0935 5.67827 11.2203 5.54676 11.3565C5.53737 11.3612 5.53267 11.3706 5.52328 11.3753C5.50919 11.3894 5.4998 11.3988 5.48571 11.4129C5.26966 11.6289 5.09119 11.8779 4.94089 12.1503C4.94089 12.155 4.9362 12.1597 4.9362 12.1597C4.88923 12.1972 4.86575 12.2442 4.86575 12.2959C4.85635 12.3194 4.84226 12.3428 4.83287 12.3663C4.83287 12.3663 4.83287 12.3663 4.83287 12.371C4.79999 12.4415 4.77181 12.5166 4.74363 12.5918C4.72015 12.6528 4.69197 12.7186 4.68258 12.7843C4.67788 12.8031 4.67318 12.8219 4.66849 12.8407C4.66379 12.8595 4.65909 12.8783 4.6544 12.897C4.6544 12.9017 4.6497 12.9111 4.6497 12.9158C4.645 12.9299 4.64031 12.944 4.64031 12.9581C4.64031 12.9628 4.64031 12.9628 4.64031 12.9675C4.61682 13.0708 4.60743 13.1788 4.57925 13.2822C4.57925 13.2869 4.57925 13.2869 4.57925 13.2869V13.2916C4.57925 13.2963 4.57925 13.301 4.57925 13.301V13.3104C4.55577 13.315 4.52759 13.3197 4.5041 13.3244C4.32563 13.3526 4.13306 13.3667 3.94989 13.3479H3.9452C3.92171 13.3479 3.90293 13.3432 3.87944 13.3432C3.87475 13.3432 3.87005 13.3432 3.86535 13.3432C3.67749 13.3197 3.48962 13.2728 3.31115 13.2023C3.22661 13.1695 3.14676 13.1319 3.06692 13.0896C3.02465 13.0614 2.98238 13.0379 2.94011 13.0192C2.91663 13.0051 2.89314 12.991 2.86966 12.9722C2.85087 12.9581 2.83209 12.9487 2.818 12.9346C2.818 12.9346 2.818 12.9346 2.8133 12.9346C2.76633 12.897 2.72406 12.8642 2.6771 12.8266C1.23991 11.6289 1.78473 9.08335 3.63991 8.67943C3.63052 8.66534 3.236 8.76867 3.17964 8.78276C3.33463 8.74049 3.48962 8.71231 3.63991 8.67943C3.64461 8.68413 2.60195 8.90487 3.63991 8.67943ZM2.36242 13.7518C2.52211 13.8599 2.83678 14.09 3.03404 14.09C3.31584 14.1933 3.63052 14.2638 3.93111 14.2779C4.0814 14.2873 4.25987 14.3013 4.41017 14.2685C4.52289 14.198 4.57925 14.1933 4.57925 14.2497C4.6544 14.7334 4.83757 15.3205 5.16633 15.6963C5.31193 15.8982 5.47631 16.0814 5.66418 16.2458L5.66888 16.2505C5.19921 16.5417 4.30684 17.3119 4.30684 17.9319C4.19882 17.9601 4.0814 17.9835 3.96868 17.9929C3.95929 17.9929 3.94989 17.9929 3.9405 17.9976C1.6861 18.2043 0.629346 15.1139 2.36242 13.7518C2.36712 13.7565 2.15107 13.9773 2.11819 13.9538C2.11819 13.9538 2.43287 13.7002 2.36242 13.7518C2.44226 13.8035 1.79882 14.198 2.36242 13.7518ZM3.19843 22.7178C2.01017 22.7178 1.09901 21.7738 0.958114 20.6231C0.89236 20.083 0.995687 19.5241 1.28218 19.0591C1.3996 18.8665 1.61565 18.5237 1.83639 18.4485C2.09471 18.3593 2.57377 18.6974 2.87905 18.8008C3.21721 18.8994 3.58825 18.9511 3.9405 18.9182C4.00156 18.9135 4.05792 18.9088 4.11897 18.9041C4.09549 19.3033 4.14715 19.7354 4.28336 20.1111C4.33502 20.2755 4.39608 20.454 4.48532 20.5996C4.60743 20.8391 4.76242 21.0927 4.95498 21.2853C5.18982 21.5577 5.218 21.5436 4.98316 21.8442C4.84696 22.018 4.69197 22.1683 4.51349 22.2951C4.12837 22.5722 3.66809 22.7178 3.19843 22.7178ZM9.5859 19.4677C9.5859 19.4724 9.5859 19.4724 9.5859 19.4677C9.29471 21.2477 7.10606 22.0556 5.78629 20.7968C5.19451 20.2286 4.84696 19.3925 5.06301 18.58C5.26966 17.8145 5.89901 16.9033 6.7585 16.7765C7.1859 16.6638 8.05009 16.6262 8.39764 16.9738C8.39764 16.9738 8.39764 16.9738 8.40234 16.9738C9.28531 17.4575 9.74089 18.5565 9.5906 19.4348C9.59529 19.3925 9.5953 19.4019 9.5859 19.4677C9.5859 19.4724 9.60469 19.3409 9.5859 19.4677ZM11.3331 19.416C11.0607 19.416 10.7882 19.3644 10.5346 19.2657C10.544 19.1389 10.5487 18.9933 10.5346 18.8665C10.5252 18.7303 10.5064 18.5941 10.483 18.4579C10.4783 18.4297 10.4736 18.4015 10.4642 18.3734C10.4642 18.3734 10.4642 18.3734 10.4642 18.3687C10.4595 18.3452 10.4548 18.317 10.4454 18.2935C10.4454 18.2888 10.4454 18.2888 10.4454 18.2888C10.328 17.8567 10.0931 17.1194 9.69392 16.8516C9.67514 16.8282 9.65635 16.8094 9.63757 16.7906C9.62817 16.7812 9.61878 16.7671 9.60939 16.7577C9.46849 16.6074 9.3088 16.4759 9.14441 16.3585C9.14441 16.3538 9.14911 16.3491 9.14911 16.3444C9.15381 16.3303 9.1585 16.3162 9.1632 16.3021C9.20547 16.1612 9.27122 16.0109 9.34637 15.8794C9.4497 15.6822 9.5859 15.499 9.74559 15.344C9.75968 15.3299 9.76907 15.3205 9.78316 15.3064C9.79725 15.2923 9.80665 15.283 9.82074 15.2736C9.83013 15.2642 9.83952 15.2548 9.85361 15.2454C9.85831 15.2407 9.86301 15.236 9.8724 15.2313C9.88179 15.2219 9.89588 15.2125 9.90528 15.2031C10.0039 15.1139 10.1213 15.0387 10.2387 14.973C10.746 15.2923 11.319 15.452 11.9201 15.452C11.9201 15.4567 11.9201 15.4661 11.9201 15.4708C11.892 15.9405 11.9577 16.4102 12.1174 16.8516C12.2066 17.0959 12.4509 17.744 12.7092 17.8755C12.7139 17.8849 12.7233 17.8943 12.7327 17.899C12.7468 17.9178 12.7609 17.9319 12.7749 17.946C12.8689 18.0493 12.9675 18.1479 13.0755 18.2372C13.2775 18.3076 13.2916 18.4015 13.1272 18.5237C13.0567 18.6974 12.7984 18.8712 12.6528 18.9792C12.263 19.261 11.8074 19.416 11.3331 19.416ZM15.1139 18.0775C13.6861 18.0775 12.6387 16.6826 12.8548 15.3111C13.2728 15.1796 13.8035 14.9354 14.0806 14.5831C14.1135 14.5503 14.1464 14.5221 14.1746 14.4892C14.1792 14.4845 14.1839 14.4798 14.1886 14.4751C14.2309 14.4329 14.2732 14.3859 14.3108 14.3389C14.3248 14.3248 14.3342 14.3107 14.3483 14.2967C14.353 14.292 14.3577 14.2873 14.3624 14.2779C14.4329 14.1933 14.5268 14.0806 14.5785 13.982C14.6959 13.7988 14.8039 13.6015 14.8791 13.3996C14.8837 13.3855 14.8884 13.3761 14.8931 13.362C16.2035 13.2352 17.3495 14.3436 17.3965 15.6305C17.4434 16.8939 16.4149 18.0775 15.1139 18.0775Z" />
      <path d="M20.4446 6.74915C20.191 6.74915 19.9844 6.5425 19.9844 6.28888C19.9844 6.03527 20.191 5.82861 20.4446 5.82861C20.6983 5.82861 20.9049 6.03527 20.9049 6.28888C20.9049 6.5425 20.6983 6.74915 20.4446 6.74915Z" />
      <path d="M23.8027 7.83875C23.3894 6.13856 22.1542 4.68729 20.1252 3.51782C20.4164 3.07633 21.9241 0.187874 20.8532 0.00939999C20.2004 -0.0986235 20.2051 1.03797 20.083 1.43719C19.8763 2.11821 19.571 2.77104 19.1296 3.33464C18.2748 4.45715 16.8517 5.0912 15.4568 5.0912C15.0622 5.06772 14.8227 5.56556 15.0857 5.86145C15.2689 6.06341 15.5789 6.02114 15.8278 6.00705C16.7296 5.95069 17.636 5.66419 18.4063 5.19453C17.5186 8.49159 19.7025 10.9573 22.3045 12.6247C22.3092 12.6294 22.3139 12.6294 22.3186 12.6341C22.3937 12.681 22.5018 12.7045 22.591 12.6951C22.5957 12.6951 22.6051 12.6951 22.6145 12.6904C22.6333 12.6904 22.6474 12.6857 22.6661 12.681C22.6943 12.6763 22.7225 12.6622 22.7507 12.6528C22.7554 12.6528 22.7554 12.6481 22.7601 12.6481C22.7648 12.6481 22.7648 12.6435 22.7695 12.6435C22.8352 12.6106 22.8916 12.5636 22.9339 12.5026C22.9339 12.5026 22.9386 12.4979 22.9386 12.4932C22.9902 12.4086 24.4086 10.3327 23.8027 7.83875C23.3894 6.13856 24.4086 10.3327 23.8027 7.83875ZM22.6521 11.0043C22.4078 10.22 22.1589 9.43562 21.8912 8.65598C21.7644 8.28024 21.6047 7.36439 21.1115 7.30803C20.3084 7.21879 20.7452 8.17691 20.8767 8.54325C21.1773 9.37926 21.4403 10.2341 21.708 11.0795C20.6701 10.2763 19.6791 9.26654 19.2845 7.98435C18.8994 6.74443 19.2094 5.49511 19.6744 4.32564C22.1166 5.73464 23.7652 8.13934 22.6521 11.0043C22.2669 9.77848 22.6521 11.0043 22.6521 11.0043Z"/>
    </symbol>

    <symbol id="nut" viewBox="0 0 24 25" fill="currentColor">
      <path d="M21.8897 5.77338C21.7746 5.60552 21.5396 5.56715 21.3765 5.68225C21.2086 5.79736 21.1703 6.03237 21.2854 6.19544C22.5707 8.02278 23.2518 10.1235 23.2518 12.277C23.2518 15.0635 22.1055 17.759 20.0192 19.8741C18.446 21.4664 16.4221 22.6559 14.1679 23.3321C13.717 22.9676 13.4436 22.2434 13.3189 21.0492C13.7794 21.476 14.3933 21.7398 15.0647 21.7398C15.8465 21.7398 16.5803 21.3849 17.0647 20.7806C17.1271 20.7854 17.1894 20.7854 17.2518 20.7854C18.6667 20.7854 19.8225 19.6343 19.8225 18.2146C19.8225 17.9988 19.7986 17.7926 19.7458 17.5863C20.4221 17.3082 21.0216 16.8477 21.4628 16.2626C22 15.5528 22.283 14.7038 22.283 13.8118C22.283 12.9245 21.9952 12.0659 21.4676 11.3609C21.9808 10.8813 22.2782 10.205 22.2782 9.48561C22.2782 8.22902 21.3861 7.18345 20.187 6.96283C20.1583 5.82134 19.3861 4.84772 18.3022 4.55036C17.9472 3.28417 16.7866 2.39209 15.4532 2.39209C14.7962 2.39209 14.1871 2.60791 13.6978 2.97242C13.9712 2.32494 14.3453 1.77818 14.7962 1.41847C16.9784 2.18106 18.9113 3.43285 20.3933 5.07314C20.5324 5.22662 20.7626 5.23621 20.9161 5.10192C21.0695 4.96763 21.0791 4.73261 20.9448 4.57914C18.7242 2.1283 15.5635 0.497602 12.048 0.00359712C12.0144 -0.00119904 11.9808 -0.00119904 11.9424 0.00359712C8.65228 0.468825 5.63549 1.94604 3.44844 4.16187C1.22302 6.41607 0 9.29856 0 12.277C0 15.2554 1.22302 18.1379 3.44844 20.3921C5.63549 22.6079 8.65228 24.0851 11.9472 24.5504C11.9664 24.5552 11.9808 24.5552 12 24.5552C12.0192 24.5552 12.0336 24.5552 12.0528 24.5504C15.3429 24.0851 18.3597 22.6079 20.5516 20.3921C22.7722 18.1379 24 15.2554 24 12.277C23.9904 9.97482 23.2662 7.72542 21.8897 5.77338ZM15.4532 3.13549C16.518 3.13549 17.4341 3.89329 17.6307 4.93405C17.6595 5.08273 17.7794 5.20264 17.9281 5.22662C18.7722 5.3753 19.3957 6.08034 19.4388 6.93405C18.8537 6.99161 18.307 7.2506 17.8849 7.67266C17.741 7.81655 17.741 8.05156 17.8849 8.19544C17.9568 8.26739 18.0528 8.30576 18.1439 8.30576C18.2398 8.30576 18.3309 8.26739 18.4029 8.19544C18.7482 7.85012 19.2086 7.65827 19.6978 7.65827C19.7074 7.65827 19.717 7.65827 19.7218 7.65348C19.741 7.65827 19.7554 7.65827 19.7746 7.65827C20.7578 7.70144 21.5252 8.5024 21.5252 9.48561C21.5252 9.99401 21.3141 10.4688 20.9544 10.8141C20.211 10.1187 19.2326 9.73501 18.2014 9.73501C17.9952 9.73501 17.8321 9.89808 17.8321 10.1043C17.8321 10.3106 17.9952 10.4736 18.2014 10.4736C19.0935 10.4736 19.9329 10.8189 20.5659 11.452C20.5851 11.4712 20.6043 11.4856 20.6235 11.5C20.6379 11.524 20.6523 11.5432 20.6667 11.5624C21.2326 12.1811 21.5396 12.9772 21.5396 13.8165C21.5396 14.5456 21.3094 15.241 20.8681 15.8261C20.5036 16.3058 20.0096 16.6847 19.458 16.9101C18.9976 16.1379 18.1679 15.6535 17.247 15.6535C16.5612 15.6535 15.9137 15.9221 15.4293 16.4065C15.2854 16.5504 15.2854 16.7854 15.4293 16.9293C15.5731 17.0731 15.8082 17.0731 15.952 16.9293C16.2974 16.5839 16.7578 16.3921 17.247 16.3921C17.9856 16.3921 18.6475 16.8285 18.9353 17.5096C19.0312 17.735 19.0791 17.9748 19.0791 18.2194C19.0791 19.1499 18.3837 19.9173 17.482 20.0324C17.5779 19.759 17.6307 19.4664 17.6307 19.1691C17.6307 18.9628 17.4676 18.7998 17.2614 18.7998C17.0552 18.7998 16.8921 18.9628 16.8921 19.1691C16.8921 19.5336 16.7866 19.8837 16.5851 20.1811C16.2446 20.6894 15.6739 20.9964 15.0647 20.9964C14.0576 20.9964 13.2326 20.1763 13.2326 19.1643C13.2326 18.6559 13.4388 18.1811 13.8082 17.8309C13.9472 17.7014 13.9616 17.4856 13.8465 17.3369C13.4436 16.8237 13.2326 16.205 13.2326 15.5528C13.2326 14.6511 13.6403 13.8165 14.3501 13.2602C14.3549 13.2554 14.3549 13.2554 14.3597 13.2506C14.8729 12.8525 15.4868 12.6415 16.1391 12.6415C16.3453 12.6415 16.5084 12.4784 16.5084 12.2722C16.5084 12.0659 16.3453 11.9029 16.1391 11.9029C15.4245 11.9029 14.7482 12.1043 14.1583 12.488C13.5731 11.8597 13.2374 11.0204 13.2374 10.1475C13.2374 9.23621 13.5923 8.38249 14.2302 7.73501C14.2302 7.73501 14.2302 7.73022 14.235 7.73022C14.8825 7.07794 15.7506 6.71343 16.6715 6.71343C16.8777 6.71343 17.0408 6.55036 17.0408 6.34413C17.0408 6.13789 16.8777 5.97482 16.6715 5.97482C15.6595 5.97482 14.7098 6.32974 13.952 6.98201C13.5012 6.56475 13.2374 5.97482 13.2374 5.35132C13.2374 4.13309 14.2302 3.13549 15.4532 3.13549ZM0.738609 12.277C0.738609 9.49041 1.88489 6.79496 3.97122 4.67986C5.39568 3.23621 7.19424 2.1235 9.19424 1.42326C9.64508 1.78297 10.024 2.32494 10.2926 2.97242C9.80336 2.61271 9.19424 2.39688 8.53717 2.39688C7.20384 2.39688 6.04317 3.28897 5.68825 4.55516C4.60432 4.85252 3.83213 5.82614 3.80336 6.96763C2.60432 7.19305 1.71223 8.23861 1.71223 9.49041C1.71223 10.205 2.00959 10.8813 2.52278 11.3657C1.9952 12.0707 1.70743 12.9245 1.70743 13.8165C1.70743 13.9029 1.71223 13.994 1.71703 14.0803C1.73141 14.2818 1.90887 14.44 2.11031 14.4257C2.31175 14.4113 2.47002 14.2386 2.45564 14.0324C2.45084 13.9604 2.45084 13.8885 2.45084 13.8165C2.45084 12.982 2.76259 12.1811 3.32374 11.5624C3.34293 11.5432 3.35731 11.524 3.36691 11.5C3.38609 11.4856 3.40528 11.4712 3.42446 11.452C4.05755 10.8189 4.89688 10.4736 5.78897 10.4736C5.9952 10.4736 6.15827 10.3106 6.15827 10.1043C6.15827 9.89808 5.9952 9.73501 5.78897 9.73501C4.753 9.73501 3.77938 10.1187 3.02158 10.8189C2.66187 10.4784 2.45084 9.9988 2.45084 9.49041C2.45084 8.50719 3.21823 7.70624 4.20144 7.66307C4.22062 7.66307 4.23501 7.65827 4.2542 7.65827C4.26379 7.66307 4.27338 7.66307 4.27818 7.66307C4.76739 7.66307 5.22782 7.85492 5.57314 8.20024C5.64508 8.27218 5.74101 8.31055 5.83213 8.31055C5.92806 8.31055 6.01918 8.27218 6.09113 8.20024C6.23501 8.05636 6.23501 7.82134 6.09113 7.67746C5.66906 7.2554 5.1223 6.9964 4.53717 6.93885C4.58034 6.08993 5.20384 5.3801 6.04796 5.23141C6.20144 5.20743 6.31655 5.08753 6.34532 4.93885C6.54676 3.89808 7.46283 3.14029 8.52278 3.14029C9.7458 3.14029 10.7434 4.13789 10.7434 5.36091C10.7434 5.98441 10.4796 6.56954 10.0288 6.99161C9.27098 6.33933 8.32134 5.98441 7.30935 5.98441C7.10312 5.98441 6.94005 6.14748 6.94005 6.35372C6.94005 6.55995 7.10312 6.72302 7.30935 6.72302C8.23022 6.72302 9.09832 7.08273 9.7458 7.73981C9.7458 7.73981 9.7458 7.7446 9.7506 7.7446C10.3933 8.39209 10.7434 9.2506 10.7434 10.1571C10.7434 11.03 10.4077 11.8693 9.81295 12.5024C9.22302 12.1187 8.54676 11.9173 7.83213 11.9173C7.6259 11.9173 7.46283 12.0803 7.46283 12.2866C7.46283 12.4928 7.6259 12.6559 7.83213 12.6559C8.48441 12.6559 9.09832 12.8669 9.61151 13.265C9.61631 13.2698 9.61631 13.2698 9.6211 13.2746C10.3309 13.8309 10.7386 14.6655 10.7386 15.5671C10.7386 16.2194 10.5276 16.8381 10.1247 17.3513C10.0096 17.5 10.024 17.7158 10.1631 17.8453C10.5324 18.1954 10.7386 18.6703 10.7386 19.1787C10.7386 20.1859 9.91846 21.0108 8.90647 21.0108C8.29257 21.0108 7.72662 20.7038 7.38609 20.1954C7.18465 19.8933 7.07914 19.5432 7.07914 19.1835C7.07914 18.9772 6.91607 18.8141 6.70983 18.8141C6.5036 18.8141 6.34053 18.9772 6.34053 19.1835C6.34053 19.4808 6.39329 19.7734 6.48921 20.0468C5.59233 19.9317 4.89209 19.1643 4.89209 18.2338C4.89209 17.9892 4.94005 17.7494 5.03597 17.524C5.32374 16.8429 5.98561 16.4065 6.72422 16.4065C7.21343 16.4065 7.67386 16.5983 8.01918 16.9436C8.16307 17.0875 8.39808 17.0875 8.54197 16.9436C8.68585 16.7998 8.68585 16.5647 8.54197 16.4209C8.05755 15.9365 7.41007 15.6679 6.72422 15.6679C5.80815 15.6679 4.97362 16.1523 4.51319 16.9245C3.7554 16.6127 3.1271 16.0324 2.76259 15.2842C2.67146 15.1019 2.45084 15.0252 2.26858 15.1115C2.08633 15.2026 2.00959 15.4233 2.09592 15.6055C2.53717 16.512 3.29976 17.2266 4.22542 17.6055C4.17266 17.8118 4.14868 18.018 4.14868 18.2338C4.14868 19.6487 5.29976 20.8046 6.71942 20.8046C6.78177 20.8046 6.84412 20.8046 6.90647 20.7998C7.39089 21.4041 8.1247 21.759 8.90647 21.759C9.58273 21.759 10.1966 21.4952 10.6523 21.0683C10.5276 22.2626 10.2542 22.982 9.80336 23.3513C7.54916 22.6751 5.52518 21.4856 3.95204 19.8933C1.88969 17.759 0.738609 15.0635 0.738609 12.277ZM11.9952 23.8118C11.5348 23.7446 11.0839 23.6583 10.6379 23.5528C11.2422 22.7758 11.4964 21.4233 11.4964 19.1691C11.4964 18.5743 11.2854 17.994 10.9113 17.5384C11.295 16.9484 11.4964 16.2674 11.4964 15.5576C11.4964 14.5695 11.1031 13.6391 10.4077 12.958C11.1031 12.1954 11.4964 11.1882 11.4964 10.1475C11.4964 9.17866 11.1655 8.25779 10.5612 7.51439C11.1511 6.95803 11.4964 6.17626 11.4964 5.35611C11.4964 4.42566 11.3141 3.5048 10.9736 2.68465C10.7194 2.08034 10.3933 1.56715 10.0096 1.16906C10.6571 0.982014 11.3237 0.842926 12 0.742206C12.6811 0.842926 13.3429 0.982014 13.9904 1.16906C13.6067 1.56715 13.2758 2.08513 13.0264 2.68465C12.6859 3.5048 12.5036 4.42566 12.5036 5.35611C12.5036 6.17626 12.8489 6.95803 13.4388 7.51439C12.8345 8.25779 12.5036 9.17866 12.5036 10.1475C12.5036 11.1882 12.8969 12.1954 13.5923 12.958C12.8969 13.6391 12.5036 14.5695 12.5036 15.5576C12.5036 16.2722 12.705 16.9484 13.0887 17.5384C12.7146 17.994 12.5036 18.5743 12.5036 19.1691C12.5036 21.4185 12.7578 22.771 13.3621 23.5528C12.9065 23.6583 12.4556 23.7446 11.9952 23.8118Z"/>
    </symbol>

    <symbol id="sesame" viewBox="0 0 24 24" fill="currentColor">
      <path d="M11.268 19.194C11.0196 19.119 10.7571 19.2597 10.6868 19.5081C10.0634 21.5986 8.09948 23.061 5.91524 23.061C3.16855 23.0563 0.937439 20.8252 0.937439 18.0832C0.937439 14.4037 2.23111 10.818 4.58408 7.98695L5.37621 7.03545C5.50746 6.87608 5.70432 6.78234 5.91056 6.78234C6.11679 6.78234 6.31365 6.87608 6.4449 7.03545L7.23703 7.98695C9.03223 10.1477 10.2228 12.7538 10.6774 15.524C10.7196 15.7771 10.9587 15.9505 11.2165 15.9083C11.4696 15.8661 11.643 15.6271 11.6008 15.3693C11.118 12.4351 9.85718 9.67434 7.95886 7.38699L7.17141 6.4308C6.86206 6.05582 6.40271 5.84021 5.91524 5.84021C5.42777 5.84021 4.96843 6.05582 4.65907 6.4308L3.86694 7.3823C1.37335 10.3821 0 14.1834 0 18.0832C0 21.3455 2.65295 23.9984 5.91524 23.9984C7.2136 23.9984 8.44633 23.5859 9.4822 22.8032C10.4806 22.0485 11.2305 20.9705 11.5868 19.7799C11.6571 19.5268 11.5164 19.2643 11.268 19.194Z" />
      <path d="M5.69025 11.8539C5.46058 11.9758 5.37621 12.2617 5.49808 12.4867C6.27146 13.9257 6.74487 15.5474 6.87143 17.1739C6.89017 17.4176 7.09641 17.6051 7.34015 17.6051C7.35421 17.6051 7.36358 17.6051 7.37764 17.6051C7.63544 17.5864 7.82761 17.3614 7.80886 17.1036C7.67294 15.3224 7.17141 13.621 6.32771 12.0461C6.20584 11.8164 5.91992 11.732 5.69025 11.8539Z" />
      <path d="M5.91524 20.0144C6.17304 20.0144 6.38396 19.8035 6.38396 19.5457C6.38396 19.2879 6.17304 19.077 5.91524 19.077C5.36684 19.077 4.91687 18.6317 4.91687 18.0786C4.91687 17.4927 4.95906 16.9021 5.04811 16.3256C5.08561 16.0678 4.91218 15.8287 4.65439 15.7912C4.39659 15.7537 4.15754 15.9272 4.12005 16.1849C4.0263 16.8083 3.97943 17.4458 3.97943 18.0786C3.97943 19.1473 4.84656 20.0144 5.91524 20.0144Z" />
      <path d="M5.91525 22.0064C8.08074 22.0064 9.83844 20.244 9.83844 18.0832C9.83844 17.8254 9.62751 17.6145 9.36972 17.6145C9.11192 17.6145 8.901 17.8254 8.901 18.0832C8.901 19.7284 7.56046 21.069 5.91525 21.069C5.65746 21.069 5.44653 21.2799 5.44653 21.5377C5.44653 21.7955 5.65746 22.0064 5.91525 22.0064Z" />
      <path d="M8.97128 15.2053C9.00878 15.2053 9.04628 15.2006 9.08377 15.1912C9.33688 15.1303 9.49156 14.8772 9.43063 14.6241C9.10721 13.2835 8.59631 11.9946 7.91666 10.7946C7.79011 10.5697 7.50419 10.49 7.2792 10.6165C7.05422 10.7431 6.97454 11.029 7.10109 11.254C7.73855 12.3789 8.21664 13.5835 8.52131 14.8397C8.56818 15.06 8.76036 15.2053 8.97128 15.2053Z" />
      <path d="M4.11068 11.4039C3.87632 11.2914 3.59977 11.3851 3.48259 11.6195C2.50766 13.6256 1.99207 15.8567 1.99207 18.0785C1.99207 18.3363 2.20299 18.5472 2.46079 18.5472C2.71858 18.5472 2.9295 18.3363 2.9295 18.0785C2.9295 15.9973 3.41229 13.9069 4.32629 12.032C4.43878 11.7976 4.34035 11.5211 4.11068 11.4039Z" />
      <path d="M23.9938 13.2601L23.8813 12.0273C23.525 8.14635 21.8095 4.49033 19.0534 1.72958C16.7473 -0.576525 12.9976 -0.576525 10.6915 1.72958C8.38539 4.03568 8.38539 7.78543 10.6915 10.0915C13.4476 12.8476 17.1036 14.5631 20.9893 14.924L22.222 15.0365C22.2736 15.0412 22.3251 15.0412 22.372 15.0412C22.8032 15.0412 23.2157 14.8725 23.525 14.5631C23.8625 14.221 24.0359 13.7429 23.9938 13.2601ZM22.8548 13.9022C22.7095 14.0475 22.5032 14.1225 22.297 14.1038L21.0643 13.9913C17.3989 13.6538 13.9491 12.032 11.3477 9.43064C9.4072 7.49014 9.4072 4.33097 11.3477 2.39047C12.2898 1.44834 13.5366 0.932752 14.8678 0.932752C16.1989 0.932752 17.4457 1.44834 18.3879 2.39047C20.9893 4.99187 22.611 8.44633 22.9485 12.107L23.061 13.3398C23.0751 13.5507 23.0048 13.7569 22.8548 13.9022Z" />
      <path d="M14.8631 4.91686C15.1303 4.91686 15.3787 5.01998 15.5662 5.20746C15.9787 5.61994 16.3677 6.06991 16.7146 6.53863C16.8083 6.66518 16.9489 6.7308 17.0942 6.7308C17.1927 6.7308 17.2864 6.70268 17.3708 6.63706C17.577 6.48238 17.6239 6.19178 17.4692 5.98085C17.0942 5.46995 16.6771 4.98717 16.2318 4.54188C15.8662 4.17628 15.3834 3.97473 14.8631 3.97473C14.3475 3.97473 13.8601 4.17628 13.4945 4.54188C13.3117 4.72468 13.3117 5.01998 13.4945 5.20278C13.6773 5.38558 13.9726 5.38558 14.1554 5.20278C14.3475 5.01998 14.6006 4.91686 14.8631 4.91686Z" />
      <path d="M19.1144 9.57599C17.5489 9.10258 16.0677 8.2917 14.8256 7.23239C14.6287 7.06365 14.3334 7.08709 14.1647 7.28395C13.996 7.48081 14.0194 7.7761 14.2163 7.94484C15.5709 9.10727 17.127 9.95565 18.8425 10.4759C18.8894 10.49 18.9316 10.4947 18.9785 10.4947C19.18 10.4947 19.3675 10.3634 19.4284 10.1619C19.4987 9.90878 19.3581 9.65098 19.1144 9.57599Z" />
      <path d="M17.6379 3.13576C17.4551 2.95296 17.1598 2.95296 16.977 3.13576C16.7942 3.31856 16.7942 3.61385 16.977 3.79665C18.4488 5.26843 19.5831 7.08706 20.2674 9.06037C20.333 9.25255 20.5158 9.37442 20.7127 9.37442C20.7643 9.37442 20.8158 9.36504 20.8674 9.34629C21.1111 9.26192 21.2424 8.99475 21.158 8.75102C20.4268 6.65116 19.2128 4.70597 17.6379 3.13576Z" />
      <path d="M18.8566 11.5726C17.6098 11.2305 16.4193 10.7149 15.3178 10.0399C15.0975 9.90401 14.8069 9.97431 14.6756 10.1946C14.5397 10.4149 14.61 10.7055 14.8303 10.8368C16.0068 11.5586 17.2817 12.107 18.6082 12.4726C18.6504 12.482 18.6925 12.4913 18.7347 12.4913C18.941 12.4913 19.1285 12.3554 19.1847 12.1492C19.2503 11.8961 19.105 11.6383 18.8566 11.5726Z" />
      <path d="M12.7539 3.13576C12.5711 2.95296 12.2758 2.95296 12.093 3.13576C10.565 4.66378 10.565 7.15737 12.093 8.6854C12.1867 8.77914 12.3039 8.82133 12.4258 8.82133C12.5476 8.82133 12.6648 8.77446 12.7586 8.6854C12.9414 8.5026 12.9414 8.2073 12.7586 8.0245C11.5961 6.86208 11.5961 4.96376 12.7586 3.80134C12.9367 3.61854 12.9367 3.31856 12.7539 3.13576Z" />
      <path d="M11.3524 17.0754C11.2305 17.0754 11.1087 17.127 11.0196 17.2114C10.9305 17.3004 10.8837 17.4176 10.8837 17.5442C10.8837 17.666 10.9352 17.7879 11.0196 17.877C11.1087 17.966 11.2258 18.0129 11.3524 18.0129C11.4789 18.0129 11.5961 17.9613 11.6852 17.877C11.7742 17.7879 11.8211 17.6707 11.8211 17.5442C11.8211 17.4176 11.7695 17.3004 11.6852 17.2114C11.5961 17.1223 11.4743 17.0754 11.3524 17.0754Z" />
    </symbol>

    <symbol id="washing-powder" viewBox="0 0 32 20" fill="currentColor">
      <path d="M8.48126 5.44995C8.74015 5.44995 8.95001 5.24009 8.95001 4.9812C8.95001 4.72232 8.74015 4.51245 8.48126 4.51245C8.22238 4.51245 8.01251 4.72232 8.01251 4.9812C8.01251 5.24009 8.22238 5.44995 8.48126 5.44995Z" />
      <path d="M11.4875 5.44995C11.7464 5.44995 11.9562 5.24009 11.9562 4.9812C11.9562 4.72232 11.7464 4.51245 11.4875 4.51245C11.2286 4.51245 11.0187 4.72232 11.0187 4.9812C11.0187 5.24009 11.2286 5.44995 11.4875 5.44995Z" />
      <path d="M9.98126 7.4187C10.2401 7.4187 10.45 7.20884 10.45 6.94995C10.45 6.69107 10.2401 6.4812 9.98126 6.4812C9.72238 6.4812 9.51251 6.69107 9.51251 6.94995C9.51251 7.20884 9.72238 7.4187 9.98126 7.4187Z" />
      <path d="M12.9875 7.4187C13.2464 7.4187 13.4562 7.20884 13.4562 6.94995C13.4562 6.69107 13.2464 6.4812 12.9875 6.4812C12.7286 6.4812 12.5187 6.69107 12.5187 6.94995C12.5187 7.20884 12.7286 7.4187 12.9875 7.4187Z" />
      <path d="M3.9375 7.4187C4.19638 7.4187 4.40625 7.20884 4.40625 6.94995C4.40625 6.69107 4.19638 6.4812 3.9375 6.4812C3.67862 6.4812 3.46875 6.69107 3.46875 6.94995C3.46875 7.20884 3.67862 7.4187 3.9375 7.4187Z" />
      <path d="M6.97498 7.4187C7.23386 7.4187 7.44373 7.20884 7.44373 6.94995C7.44373 6.69107 7.23386 6.4812 6.97498 6.4812C6.71609 6.4812 6.50623 6.69107 6.50623 6.94995C6.50623 7.20884 6.71609 7.4187 6.97498 7.4187Z" />
      <path d="M9.98126 3.47498C10.2401 3.47498 10.45 3.26511 10.45 3.00623C10.45 2.74734 10.2401 2.53748 9.98126 2.53748C9.72238 2.53748 9.51251 2.74734 9.51251 3.00623C9.51251 3.26511 9.72238 3.47498 9.98126 3.47498Z" />
      <path d="M6.97498 3.47498C7.23386 3.47498 7.44373 3.26511 7.44373 3.00623C7.44373 2.74734 7.23386 2.53748 6.97498 2.53748C6.71609 2.53748 6.50623 2.74734 6.50623 3.00623C6.50623 3.26511 6.71609 3.47498 6.97498 3.47498Z" />
      <path d="M5.50623 5.44995C5.76511 5.44995 5.97497 5.24009 5.97497 4.9812C5.97497 4.72232 5.76511 4.51245 5.50623 4.51245C5.24734 4.51245 5.03748 4.72232 5.03748 4.9812C5.03748 5.24009 5.24734 5.44995 5.50623 5.44995Z" />
      <path d="M30.525 8.01875H26.0563C25.7938 8.01875 25.5875 8.23125 25.5875 8.4875C25.5875 8.75 25.8 8.95625 26.0563 8.95625H30.525C30.8188 8.95625 31.0563 9.19375 31.0563 9.4875V9.64375C31.0563 9.90625 30.8688 10.125 30.6125 10.1687L16.4188 12.5312C16.1938 12.5688 16.025 12.7625 16.025 12.9937V15.5C16.025 17.45 14.4375 19.0375 12.4875 19.0375H4.46875C2.51875 19.0375 0.93125 17.45 0.93125 15.5V8.95625H23.7438C24.0063 8.95625 24.2125 8.74375 24.2125 8.4875C24.2125 8.225 24 8.01875 23.7438 8.01875H16.8063C16.5375 7.375 15.8375 5.80625 14.7438 4.2125C12.8563 1.45625 10.6875 0 8.48125 0C6.275 0 4.1 1.45625 2.20625 4.2125C0.8125 6.2375 0.05625 8.2375 0.025 8.31875V8.325C0.01875 8.3375 0.01875 8.35 0.0125 8.3625C0.0125 8.36875 0.0125 8.36875 0.00625 8.375C0 8.3875 0 8.4 0 8.41875C0 8.425 0 8.425 0 8.43125C0 8.45 0 8.46875 0 8.48125V15.5C0 17.9688 2.00625 19.975 4.475 19.975H12.4938C14.9625 19.975 16.9688 17.9688 16.9688 15.5V13.3938L30.7688 11.0938C31.4813 10.975 32 10.3625 32 9.64375V9.4875C31.9938 8.675 31.3313 8.01875 30.525 8.01875ZM8.48125 0.9375C12.3125 0.9375 14.9688 6.16875 15.7938 8.0125H1.16875C1.9875 6.16875 4.64375 0.9375 8.48125 0.9375Z" />
    </symbol>

    <symbol id="substitute" viewBox="0 0 24 25" fill="currentColor">
      <path d="M0.18761 21.5505C3.66777 23.7268 3.43795 23.6142 3.60211 23.6142C3.76627 23.6142 3.5599 23.708 6.80555 21.6865C10.0559 23.7174 9.84952 23.6142 10.009 23.6142C10.1685 23.6142 10.009 23.6846 12.6261 22.0477C12.8138 21.9304 12.87 21.6818 12.7528 21.4942C12.6355 21.3066 12.3869 21.2503 12.1993 21.3676L10.0043 22.7418L7.20422 20.9924V18.2345L8.66758 17.3199C8.85519 17.2027 8.91147 16.9541 8.79422 16.7665C8.67696 16.5789 8.42838 16.5226 8.24077 16.6398L6.80555 17.5404L4.00547 15.7909V13.033L6.80555 11.2836C8.3674 12.2591 8.26422 12.2122 8.37678 12.231C8.56439 12.2638 8.752 12.1653 8.82236 11.9871C8.89271 11.8089 8.82705 11.6072 8.66758 11.504L7.20422 10.5894V7.83154L10.0043 6.08208L12.8044 7.83154V8.40844C12.8044 8.62888 12.9826 8.80711 13.203 8.80711C13.4235 8.80711 13.6017 8.62888 13.6017 8.40844V7.83154L16.4018 6.08208L19.2019 7.83154V10.8098C19.2019 11.0303 19.3801 11.2085 19.6005 11.2085C19.821 11.2085 19.9992 11.0303 19.9992 10.8098V7.60641C19.9992 7.47039 19.9289 7.33907 19.8116 7.26871L16.7958 5.38323V2.40023C16.7958 2.26422 16.7254 2.13289 16.6082 2.06254L13.4188 0.0598007C13.2875 -0.0199336 13.1233 -0.0199336 12.9967 0.0598007L10.009 1.92652L7.01661 0.0598007C6.88528 -0.0199336 6.72113 -0.0199336 6.59449 0.0598007L3.39105 2.06254C3.27379 2.13758 3.20344 2.26422 3.20344 2.40023V5.37854L0.18761 7.26402C0.0703537 7.33907 0 7.4657 0 7.60172V10.8052C0 10.9412 0.0703537 11.0725 0.18761 11.1429L3.20344 13.0283V15.7862L0.18761 17.6717C0.0703537 17.7467 0 17.8734 0 18.0094V21.2128C0 21.3488 0.0703537 21.4755 0.18761 21.5505ZM13.2077 0.871214L16.0078 2.62068V5.37854L13.2077 7.12801L10.4077 5.37854V2.62068L13.2077 0.871214ZM6.80555 0.871214L9.60563 2.62068V5.37854L6.80555 7.12801L4.00547 5.37854V2.62068L6.80555 0.871214ZM0.802032 7.82685L3.60211 6.07739L6.40219 7.82685V10.5847L3.60211 12.3342L0.802032 10.5847V7.82685ZM0.802032 18.2298L3.60211 16.4804L6.40219 18.2298V20.9877L3.60211 22.7372L0.802032 20.9877V18.2298Z" />
      <path d="M18.4092 12.0105V11.6072C18.4092 10.9083 18.0997 10.2423 17.5697 9.78265L17.9684 8.98062C18.0668 8.78363 17.9824 8.54443 17.7854 8.44593C17.5884 8.34744 17.3492 8.42717 17.2507 8.62416L16.8802 9.36991C16.3221 9.14947 15.6983 9.14947 15.1354 9.36991L14.7649 8.62416C14.7039 8.49283 14.5726 8.40841 14.4319 8.39903C14.2865 8.38965 14.1505 8.46 14.0708 8.57726C13.991 8.6992 13.9816 8.84929 14.0473 8.98062L14.446 9.78265C13.9113 10.2376 13.6017 10.9036 13.6017 11.6072V12.0105C13.2359 12.0058 12.8419 12.0058 12.401 12.0058C10.2763 12.0058 7.99689 12.972 7.99689 14.4072C7.99689 16.1332 11.2472 17.0385 12.8654 16.7664C12.8278 17.0854 12.7997 17.5216 12.7997 17.8124C12.7997 20.6124 14.0004 22.8497 15.5998 23.1733V23.6189C15.5998 23.8393 15.778 24.0176 15.9985 24.0176C16.2189 24.0176 16.3971 23.8393 16.3971 23.6189V23.1686C17.9965 22.845 19.1972 20.6077 19.1972 17.8077C19.1972 17.5216 19.1691 17.0807 19.1315 16.7664C20.7684 17.0385 24 16.1239 24 14.4072C24 12.972 21.7252 12.0058 19.5959 12.0058C19.1925 12.0058 18.7845 12.0058 18.4092 12.0105ZM14.4085 11.6072C14.4085 10.7207 15.1261 10.0078 16.0078 10.0078C16.8943 10.0078 17.6072 10.7254 17.6072 11.6072V12.0293C17.0678 12.0199 16.5238 12.0996 16.0078 12.2591C15.4919 12.0903 14.9478 12.0152 14.4038 12.0293V11.6072H14.4085ZM16.0125 14.1587C16.2001 14.5339 16.43 14.8856 16.702 15.2046H15.3184C15.5857 14.8856 15.8202 14.5339 16.0125 14.1587ZM8.80361 14.4072C8.80361 13.6849 10.464 12.8079 12.4057 12.8079C13.2078 12.8079 15.0979 12.7938 15.5951 12.9533C15.4591 13.9148 14.0614 16.0113 12.4057 16.0113C10.4686 16.0066 8.80361 15.1295 8.80361 14.4072ZM14.4929 16.0066H17.5181C17.762 16.1989 18.0246 16.3631 18.3014 16.4991C18.3154 16.6023 18.3295 16.7055 18.3436 16.8086H15.6092C15.3887 16.8086 15.2105 16.9869 15.2105 17.2073C15.2105 17.4278 15.3887 17.606 15.6092 17.606H18.3999C18.4186 17.8733 18.4139 18.1407 18.3858 18.408H13.6299C13.6017 18.1407 13.597 17.8733 13.6158 17.606H14.0051C14.2255 17.606 14.4038 17.4278 14.4038 17.2073C14.4038 16.9869 14.2255 16.8086 14.0051 16.8086H13.6721C13.6862 16.7008 13.7002 16.5976 13.7143 16.4897C13.9957 16.3584 14.2537 16.1989 14.4929 16.0066ZM14.2068 20.8094H16.0078C16.2283 20.8094 16.4065 20.6312 16.4065 20.4108C16.4065 20.1903 16.2283 20.0121 16.0078 20.0121H13.9113C13.8362 19.7494 13.7753 19.4821 13.7284 19.21H18.292C18.2451 19.4821 18.1841 19.7494 18.1091 20.0121H17.6119C17.3915 20.0121 17.2132 20.1903 17.2132 20.4108C17.2132 20.6312 17.3915 20.8094 17.6119 20.8094H17.8136C16.838 22.9435 15.1823 22.9435 14.2068 20.8094ZM23.2121 14.4072C23.2121 15.4016 20.2384 16.4053 18.8126 15.8518C17.6213 15.289 16.7442 14.229 16.4206 12.9533C16.9975 12.7797 18.7282 12.8079 19.6099 12.8032C21.5517 12.8079 23.2121 13.6849 23.2121 14.4072Z" />
    </symbol>

    <symbol id="beans" viewBox="0 0 24 19" fill="currentColor">
      <path d="M11.3672 3.05625C11.2031 2.85 10.9031 2.81719 10.6969 2.98125C10.4484 3.17813 10.1531 3.28594 9.83438 3.28594C9.51563 3.28594 9.22032 3.18282 8.97188 2.98125C8.76563 2.81719 8.46563 2.85 8.30157 3.05625C8.1375 3.2625 8.17032 3.5625 8.37657 3.72656C8.78907 4.05938 9.30938 4.2375 9.83907 4.2375C10.3688 4.2375 10.8891 4.05469 11.3016 3.72656C11.4984 3.5625 11.5313 3.2625 11.3672 3.05625Z" />
      <path d="M23.6531 9.80156C23.2687 8.74688 22.6031 7.84219 21.7265 7.18594C21.1031 6.72188 20.3953 6.40313 19.6312 6.23906C19.7953 4.73438 19.3265 3.17344 18.3468 1.9875C17.2875 0.707813 15.764 0 14.0578 0H13.7812C12.5859 0 11.4281 0.421875 10.4297 1.22344C10.2562 1.35938 10.05 1.43438 9.82966 1.43438C9.60935 1.43438 9.4031 1.35938 9.22966 1.22344C8.23591 0.421875 7.0781 0 5.88279 0H5.60623C4.37342 0 3.22029 0.375 2.27342 1.07813C1.39217 1.73438 0.726543 2.63438 0.346856 3.69375C-0.0328314 4.74375 -0.103144 5.85938 0.154668 6.91875C0.426543 8.0625 1.06873 9.07969 2.01092 9.86719C2.7281 10.4672 3.5156 10.9828 4.34998 11.4C4.31717 11.9484 4.36404 12.4922 4.4906 13.0266C4.76248 14.1703 5.40467 15.1875 6.34685 15.975C8.53591 17.8031 11.3156 18.8063 14.1703 18.8063C17.025 18.8063 19.8047 17.7984 21.9937 15.975C22.9359 15.1875 23.5781 14.1703 23.85 13.0266C24.1031 11.9672 24.0375 10.8516 23.6531 9.80156ZM4.49998 10.4016C3.83435 10.0453 3.20623 9.61875 2.62029 9.13125C0.792168 7.60781 0.712481 5.48906 1.24217 4.01719C1.77654 2.53594 3.20623 0.95625 5.60154 0.95625H5.8781C6.8531 0.95625 7.80466 1.30781 8.62966 1.96875C8.96716 2.24063 9.39373 2.39063 9.82498 2.39063C10.2562 2.39063 10.6828 2.24063 11.0203 1.96875C11.8453 1.30313 12.7968 0.95625 13.7718 0.95625H14.0484C15.464 0.95625 16.725 1.5375 17.6015 2.59688C18.4172 3.58125 18.8015 4.87031 18.675 6.1125C18.5812 6.10781 18.4828 6.10313 18.3843 6.10313H18.1078C16.9125 6.10313 15.7547 6.525 14.7562 7.32656C14.5828 7.4625 14.3765 7.5375 14.1562 7.5375C13.9359 7.5375 13.7297 7.4625 13.5562 7.32656C12.5578 6.525 11.4 6.10313 10.2047 6.10313H9.9281C8.69529 6.10313 7.54685 6.47813 6.59529 7.18125C5.71404 7.8375 5.04842 8.7375 4.66873 9.79688C4.60779 9.99844 4.54685 10.2 4.49998 10.4016ZM21.3797 15.2391C19.364 16.9219 16.8 17.85 14.1703 17.85C11.5406 17.85 8.97185 16.9219 6.95623 15.2391C5.1281 13.7156 5.04842 11.5969 5.5781 10.125C6.11248 8.64375 7.54216 7.06406 9.93748 7.06406H10.214C11.189 7.06406 12.1406 7.41563 12.9656 8.07656C13.3031 8.34844 13.7297 8.49844 14.1609 8.49844C14.5922 8.49844 15.0187 8.34844 15.3562 8.07656C16.1812 7.41094 17.1328 7.06406 18.1078 7.06406H18.3843C20.7797 7.06406 22.2093 8.64844 22.7437 10.125C23.2875 11.5969 23.2078 13.7156 21.3797 15.2391Z" />
      <path d="M15.6234 9.09849C15.4593 8.89224 15.1593 8.85943 14.9531 9.02349C14.7047 9.22037 14.4093 9.32818 14.0906 9.32818C13.7718 9.32818 13.4765 9.22505 13.2281 9.02349C13.0219 8.85943 12.7219 8.89224 12.5578 9.09849C12.3937 9.30474 12.4265 9.60474 12.6328 9.7688C13.0453 10.1016 13.5656 10.2797 14.0953 10.2797C14.625 10.2797 15.1453 10.0969 15.5578 9.7688C15.7593 9.60474 15.7922 9.30474 15.6234 9.09849Z" />
      <path d="M19.3171 15.4453C19.1953 15.2109 18.9093 15.1172 18.6749 15.239C17.2734 15.9562 15.7593 16.3219 14.1703 16.3219C13.9078 16.3219 13.6921 16.5375 13.6921 16.8C13.6921 17.0625 13.9078 17.2781 14.1703 17.2781C15.9093 17.2781 17.5734 16.8797 19.1109 16.0875C19.3453 15.9703 19.4343 15.6797 19.3171 15.4453Z" />
      <path d="M21.1688 14.0953C21 13.8937 20.7 13.8656 20.4938 14.0344C20.3813 14.1281 20.2688 14.2172 20.1563 14.3062C19.9453 14.4656 19.9078 14.7656 20.0672 14.9765C20.1609 15.0984 20.3016 15.164 20.4469 15.164C20.55 15.164 20.6484 15.1312 20.7375 15.0656C20.8641 14.9719 20.9859 14.8687 21.1078 14.7703C21.3094 14.5969 21.3375 14.2969 21.1688 14.0953Z" />
    </symbol>

    <symbol id="oat" viewBox="0 0 32 32" fill="currentColor">
      <path d="M19.4701 18.3212C19.9297 19.0528 20.6565 19.4513 21.4349 19.4513C21.796 19.4513 22.1665 19.3669 22.5276 19.1887L23.925 18.6964L22.9918 17.5428C22.6026 16.9238 22.0164 16.5533 21.3787 16.4502C21.8664 16.4174 22.3494 16.2345 22.7667 15.8828L24.0047 15.0715L22.823 14.1758C22.5557 13.9132 22.2509 13.7397 21.932 13.6225C22.1993 13.4209 22.4291 13.1536 22.6073 12.83L23.4654 11.6202L22.0399 11.2169C21.4818 10.9824 20.9097 10.9637 20.4033 11.1278C20.7644 10.837 21.0457 10.4338 21.1958 9.93669L21.7913 8.58148L20.3142 8.47362C19.0715 8.23447 17.9601 8.90035 17.5944 10.1102L17.1161 11.1934C16.8206 10.8558 16.5018 10.5416 16.1547 10.2556L17.2989 9.64596C18.4807 9.19109 19.0621 8.03283 18.7292 6.8136L18.5135 5.34584L17.2052 6.03986C16.0234 6.49472 15.442 7.65299 15.7749 8.8769L15.9531 10.0868C15.5592 9.78195 15.1372 9.51934 14.687 9.28957L15.245 8.27198C15.9859 7.24502 15.8406 5.95545 14.8886 5.11606L13.9086 4L13.1958 5.29894C12.4549 6.32591 12.6002 7.61547 13.5522 8.45486L14.0211 8.98007C13.9179 8.93787 13.8195 8.89566 13.7116 8.85815C13.5287 8.79719 13.3411 8.86753 13.2333 9.01758L12.4642 8.13599C11.7515 7.09027 10.4947 6.78077 9.37866 7.38101L8 7.92497L8.97069 9.04103C9.43963 9.73036 10.143 10.1008 10.8933 10.1008C11.0199 10.1008 11.1465 10.0868 11.2685 10.0633C10.6729 10.2931 10.1852 10.7714 9.92732 11.4467L9.24267 12.7644L10.7104 12.966C10.9308 13.0223 11.1512 13.0504 11.3669 13.0504C11.7468 13.0504 12.1079 12.9566 12.4267 12.7878C12.3095 13.1348 12.2673 13.5193 12.3236 13.9226L12.3611 15.4045L13.7444 14.8746C13.857 14.8464 13.9648 14.8042 14.068 14.762C14.0352 14.8746 14.0023 14.9918 13.9836 15.1137L13.585 16.5393L15.0621 16.4408C15.0809 16.4408 15.0996 16.4361 15.1184 16.4408C14.8839 16.6518 14.6776 16.9097 14.5276 17.2239L13.7304 18.4713L15.1747 18.8042C15.3435 18.8652 15.5123 18.9027 15.6811 18.9261C15.0621 18.9777 14.476 19.2778 14.0399 19.8265L12.9848 20.8675L14.3212 21.51C14.7386 21.7773 15.1887 21.9086 15.6249 21.9086C16.3095 21.9086 16.9707 21.5944 17.4537 20.9894L17.51 20.9332C16.1923 24.1172 13.3552 26.4525 9.61782 27.1653C9.38804 27.2075 9.23798 27.4326 9.28019 27.6577C9.3177 27.8593 9.4959 28 9.69285 28C9.72098 28 9.74443 27.9953 9.77257 27.9906C13.5756 27.2638 16.5111 24.9801 18.0258 21.8429L17.9695 23.0856C17.7585 24.3329 18.4572 25.4256 19.6811 25.7632L21.0551 26.3212L21.1254 24.8394C21.3365 23.592 20.6377 22.4994 19.4138 22.1618L18.1336 21.6366C18.3634 21.1301 18.551 20.6049 18.7104 20.061L18.8886 20.6893C19.0856 21.9367 20.0938 22.7573 21.3599 22.687L22.837 22.7855L22.4338 21.3599C22.2368 20.1079 21.2192 19.2919 19.9625 19.3623L18.9027 19.2919C19.0012 18.8277 19.0762 18.354 19.1184 17.871L19.4701 18.3212ZM17.5287 6.80891L17.857 6.64009L17.9039 6.94959L17.9132 7.00117C18.143 7.81243 17.7679 8.55803 16.9801 8.85346L16.6518 9.02227L16.6049 8.71278L16.5955 8.6612C16.3611 7.84994 16.7362 7.10434 17.5287 6.80891ZM13.8898 5.77257L14.0727 5.449L14.2837 5.68347L14.3212 5.72098C14.959 6.27433 15.0528 7.09965 14.551 7.7796L14.3681 8.10317L14.1618 7.8687L14.1243 7.83118C13.4865 7.28253 13.3927 6.45252 13.8898 5.77257ZM18.8136 23.2169L18.8324 22.8511L19.1231 22.9683L19.1747 22.9871C19.9906 23.2028 20.4408 23.9015 20.2907 24.7362L20.272 25.102L19.9812 24.9848L19.9297 24.966C19.1137 24.7503 18.6635 24.0469 18.8136 23.2169ZM19.9672 20.2204H19.9953C20.8347 20.1594 21.4865 20.6893 21.6084 21.524L21.7069 21.8804L21.3646 21.857H21.3365C20.5018 21.9179 19.8453 21.388 19.7233 20.5533L19.6249 20.197L19.9672 20.2204ZM19.1653 16.9472C19.1653 16.8253 19.1747 16.7081 19.1747 16.5862C19.17 16.1735 19.1278 15.7655 19.0668 15.3669L19.5967 15.7702C19.9672 16.1313 20.4033 16.347 20.8581 16.422C20.5533 16.4455 20.2438 16.5252 19.9437 16.6753L19.1653 16.9472ZM18.5744 13.585L19.6108 13.8804C19.6764 13.9086 19.7421 13.932 19.803 13.9508C19.7515 13.9883 19.6999 14.0164 19.6483 14.0586L18.8886 14.5557C18.8089 14.2227 18.7011 13.8992 18.5744 13.585ZM22.2884 18.007L22.5182 18.2978L22.2227 18.4009L22.1712 18.4244C21.4209 18.8042 20.619 18.5791 20.1782 17.8617L19.9484 17.5709L20.2438 17.4678L20.2954 17.4443C21.0457 17.0598 21.8476 17.2849 22.2884 18.007ZM22.5463 15.0152L22.2837 15.1887L22.2415 15.2216C21.5991 15.7749 20.7691 15.7421 20.1688 15.1512L19.8781 14.9261L20.1407 14.7526L20.1829 14.7198C20.8206 14.1665 21.6553 14.1993 22.2556 14.7902L22.5463 15.0152ZM21.7304 11.9953L22.0821 12.0985L21.8992 12.3564L21.871 12.4033C21.4771 13.1489 20.6893 13.4256 19.9156 13.0926L19.5639 12.9894L19.7468 12.7315L19.7749 12.6846C20.1735 11.939 20.9566 11.6624 21.7304 11.9953ZM18.3775 10.415L18.3962 10.3634C18.6307 9.55217 19.3435 9.12075 20.1735 9.29426L20.5393 9.32239L20.4127 9.60844L20.3939 9.66002C20.1594 10.4713 19.442 10.898 18.6166 10.7292L18.2509 10.7011L18.3775 10.415ZM18.476 11.5639C18.6448 11.5967 18.8136 11.6155 18.9777 11.6155C19.2263 11.6155 19.4607 11.578 19.6858 11.5076C19.4326 11.7046 19.2122 11.9578 19.0434 12.2673L18.3962 13.177C18.1196 12.5721 17.7726 12 17.3646 11.4842L18.476 11.5639ZM17.3927 13.0504L16.4549 13.1114C16.0938 13.0926 15.7562 13.1536 15.4467 13.2708C15.5358 12.9519 15.5686 12.6049 15.517 12.2392L15.4795 10.7808C16.2673 11.3998 16.9144 12.1735 17.3927 13.0504ZM9.66002 8.55334L9.42087 8.27198L9.71161 8.15944L9.76319 8.13599C10.4994 7.72802 11.3107 7.92497 11.7749 8.62837L12.0141 8.90973L11.7233 9.02227L11.6717 9.04572C10.9355 9.45369 10.1243 9.25205 9.66002 8.55334ZM12.0563 9.79601L13.1676 9.35991C13.2005 9.49121 13.2943 9.60844 13.4302 9.65533C14.1759 9.91325 14.8558 10.2931 15.4607 10.7667L14.0961 11.2872C13.8898 11.3388 13.7069 11.4185 13.5334 11.5076L14.2181 10.1899L12.7503 9.98828C12.4033 9.89918 12.0703 9.88511 11.7515 9.93669C11.8546 9.89449 11.9578 9.85229 12.0563 9.79601ZM10.9121 12.1454L10.5463 12.0891L10.6917 11.8124L10.7151 11.7608C11.0012 10.9683 11.7421 10.5838 12.558 10.8089L12.9238 10.8652L12.7784 11.1419L12.755 11.1934C12.4642 11.9859 11.7233 12.3705 10.9121 12.1454ZM13.5287 14.0633L13.1817 14.1899L13.1723 13.8757L13.1676 13.8195C13.0363 12.9848 13.5006 12.2954 14.3212 12.0985L14.6682 11.9719L14.6776 12.286L14.6823 12.3423C14.8136 13.177 14.3494 13.8664 13.5287 14.0633ZM15.0668 15.5967L14.7245 15.6202L14.8089 15.32L14.8183 15.2638C14.9355 14.4666 15.5264 13.9555 16.3095 13.9555C16.347 13.9555 16.3845 13.9555 16.4267 13.9601H16.4549L16.7972 13.9367L16.7128 14.2368L16.7034 14.2931C16.5815 15.1278 15.9437 15.653 15.095 15.6014L15.0668 15.5967ZM17.5334 14.4431L17.7304 13.7444C18.0539 14.5135 18.2509 15.3482 18.3072 16.2157L17.4678 16.0234C17.2286 15.939 16.9894 15.8968 16.755 15.8828C17.163 15.5311 17.4443 15.0387 17.5334 14.4431ZM15.0903 17.9226L15.2591 17.66L15.2872 17.6131C15.6436 16.8488 16.4174 16.5346 17.2052 16.83L17.5662 16.9144L17.3974 17.177L17.3693 17.2239C17.0129 17.9883 16.2392 18.3072 15.4513 18.007L15.0903 17.9226ZM16.8441 20.4174L16.8066 20.4596C16.2907 21.1254 15.4654 21.2614 14.762 20.8019L14.4338 20.6377L14.6589 20.4174L14.6964 20.3751C15.2122 19.7093 16.0328 19.5733 16.7409 20.0328L17.0692 20.197L16.8441 20.4174ZM17.177 19.3107C16.8722 19.1137 16.544 19.0012 16.2204 18.9496C17.0223 18.8839 17.7351 18.4103 18.1196 17.6038L18.3118 17.3036C18.2743 18.129 18.1524 18.9215 17.9461 19.6811L17.177 19.3107Z"/>
    </symbol>

    <symbol id="seaweed" viewBox="0 0 32 32" fill="currentColor">
    <path d="M21.625 5C21.3672 5 21.1562 5.21094 21.1562 5.46875C21.1562 5.72656 21.3672 5.9375 21.625 5.9375C21.8828 5.9375 22.0938 5.72656 22.0938 5.46875C22.0938 5.21094 21.8828 5 21.625 5Z" />
<path d="M27.5312 26.5625H24.8922C24.9906 26.3891 25.0469 26.1922 25.0469 25.9813V24.8844C25.0469 24.7156 25.1687 24.5984 25.3422 24.5984H26.7531C27.4422 24.5984 28 24.0313 28 23.3328C28 21.9969 27.4797 20.7453 26.5375 19.7984C25.7453 19.0063 24.4094 19.5828 24.4094 20.6797C24.4094 20.8484 24.2734 20.9891 24.1 20.9891H22.6891C22.5344 20.9891 22.3844 21.0172 22.2438 21.0734L22.0984 20.675C22.0422 20.5156 22.1219 20.3375 22.2812 20.2813L23.3125 19.9063C23.9594 19.6719 24.2922 18.9547 24.0578 18.3078L23.6828 17.2766C23.6266 17.1172 23.7062 16.9391 23.8656 16.8828C24.9109 16.5031 24.9719 15.0547 23.9641 14.5812C22.7547 14.0187 21.4 13.9578 20.1437 14.4125C19.4969 14.6469 19.1641 15.3641 19.3984 16.0109L19.7734 17.0422C19.8297 17.2016 19.75 17.3797 19.5906 17.4359L18.9531 17.6656C18.9578 17.3422 18.8359 17.0188 18.5875 16.775L17.8094 15.9969C17.6875 15.875 17.6875 15.6828 17.8094 15.5609L18.5875 14.7828C19.075 14.2953 19.075 13.5078 18.5875 13.0203C17.65 12.0828 16.3984 11.5625 15.0625 11.5625C13.9422 11.5625 13.4031 12.9125 14.1812 13.6906C14.3031 13.8125 14.3031 14.0047 14.1812 14.1266L13.4031 14.9047C12.9156 15.3922 12.9156 16.1797 13.4031 16.6672L14.1812 17.4453C14.3031 17.5672 14.3031 17.7594 14.1812 17.8812L13.8906 18.1719C13.7547 18.0172 13.5813 17.8953 13.3797 17.8203L12.3484 17.4453C12.2688 17.4172 12.2078 17.3609 12.175 17.2859C12.1422 17.2109 12.1375 17.1266 12.1656 17.0516L12.5406 16.0203C12.775 15.3734 12.4422 14.6609 11.7953 14.4219C10.5438 13.9672 9.18438 14.0234 7.975 14.5906C6.97188 15.0594 7.03281 16.5078 8.07344 16.8875C8.23281 16.9438 8.31719 17.1219 8.25625 17.2813L7.88125 18.3125C7.64688 18.9594 7.97969 19.6719 8.62656 19.9109L9.65781 20.2859C9.81719 20.3422 9.90156 20.5203 9.84062 20.6797L9.69531 21.0734C9.55469 21.0172 9.4 20.9891 9.25 20.9891H7.89062C7.72187 20.9891 7.58125 20.8531 7.58125 20.6797C7.58125 19.5828 6.24531 19.0063 5.45312 19.7984C4.53437 20.7266 4 22.0203 4 23.3469C4 24.0359 4.55781 24.5938 5.24688 24.5938H6.60625C6.77969 24.5938 6.90625 24.7156 6.90625 24.8797V25.9766C6.90625 26.1875 6.95781 26.3844 7.05156 26.5578H4.46875C4.21094 26.5578 4 26.7688 4 27.0266C4 27.2844 4.21094 27.4953 4.46875 27.4953C5.36875 27.4953 26.2375 27.4953 27.5312 27.4953C27.7891 27.4953 28 27.2844 28 27.0266C28 26.7688 27.7891 26.5625 27.5312 26.5625ZM10.0375 26.5625C9.81719 26.3797 9.54063 26.2813 9.25469 26.2813H8.15781C7.98437 26.2813 7.84375 26.1453 7.84375 25.9813V24.8844C7.84375 24.1953 7.3 23.6609 6.60625 23.6609H5.24688C5.07812 23.6609 4.9375 23.525 4.9375 23.3516C4.9375 22.2688 5.36875 21.2188 6.12813 20.4641C6.32031 20.2719 6.65312 20.4078 6.65312 20.6797C6.65312 21.3688 7.21094 21.9266 7.9 21.9266L9.25937 21.9219C9.35312 21.9219 9.44219 21.9688 9.50313 22.0391C9.51719 22.0719 9.53594 22.1047 9.55937 22.1328C9.57344 22.1656 9.57812 22.2031 9.57812 22.2406V23.3281C9.57812 24.0266 10.1313 24.5938 10.8109 24.5938H11.9078C12.0766 24.5938 12.2031 24.7156 12.2031 24.8797V25.9766C12.2031 26.1875 12.2547 26.3844 12.3531 26.5578H10.0375V26.5625ZM14.5609 26.2813H13.4641C13.2906 26.2813 13.1453 26.1453 13.1453 25.9813V24.8844C13.1453 24.1953 12.6062 23.6609 11.9125 23.6609H10.8156C10.6562 23.6609 10.5203 23.5109 10.5203 23.3328V22.2359C10.5203 22.0859 10.4922 21.9406 10.4406 21.8047L10.7313 21.0031C10.9656 20.3563 10.6328 19.6438 9.98594 19.4047L8.95469 19.0297C8.79531 18.9734 8.71094 18.7953 8.77188 18.6359L9.14688 17.6047C9.38125 16.9578 9.04844 16.2453 8.40156 16.0063C8.14375 15.9125 8.125 15.5563 8.37813 15.4391C9.3625 14.9797 10.4641 14.9328 11.4813 15.3031C11.6406 15.3594 11.725 15.5375 11.6641 15.6969L11.2891 16.7281C11.1766 17.0422 11.1906 17.3797 11.3312 17.6797C11.4719 17.9797 11.7203 18.2094 12.0344 18.3219L13.0656 18.6969C13.1453 18.725 13.2063 18.7859 13.2437 18.8609C12.9344 19.3438 12.9906 19.9953 13.4125 20.4125L14.1906 21.1906C14.3125 21.3125 14.3125 21.5047 14.1906 21.6266L13.4125 22.4047C12.925 22.8922 12.925 23.6797 13.4125 24.1672L14.6406 25.3953C14.5562 25.6578 14.5563 25.9391 14.6547 26.2109L14.6828 26.2906C14.6406 26.2859 14.5984 26.2813 14.5609 26.2813ZM15.2453 24.6734L14.0688 23.4969C13.9469 23.375 13.9469 23.1828 14.0688 23.0609L14.8469 22.2828C15.3344 21.7953 15.3344 21.0078 14.8469 20.5203L14.0688 19.7422C13.9469 19.6203 13.9469 19.4281 14.0688 19.3063L14.8469 18.5281C15.3344 18.0406 15.3344 17.2531 14.8469 16.7656C14.1344 16.0156 13.9797 15.9922 13.9797 15.7719C13.9797 15.6875 14.0125 15.6125 14.0688 15.5563L14.8469 14.7781C15.3344 14.2906 15.3344 13.5031 14.8469 13.0156C14.6547 12.8234 14.7906 12.4906 15.0625 12.4906C16.1453 12.4906 17.1672 12.9125 17.9313 13.6813C18.0531 13.8031 18.0531 13.9953 17.9313 14.1172L17.1531 14.8953C16.6656 15.3828 16.6656 16.1703 17.1531 16.6578L17.9313 17.4359C18.0531 17.5578 18.0531 17.75 17.9313 17.8719L17.1531 18.65C16.6656 19.1375 16.6656 19.925 17.1531 20.4125L17.6922 20.9516L16.975 21.2141C16.6609 21.3266 16.4125 21.5563 16.2719 21.8563C16.1312 22.1563 16.1172 22.4938 16.2297 22.8078L16.6047 23.8391C16.6609 23.9984 16.5813 24.1766 16.4219 24.2328L15.3906 24.6078C15.3438 24.6266 15.2922 24.65 15.2453 24.6734ZM18.0156 19.9438L17.8187 19.7469C17.7062 19.6344 17.6969 19.4563 17.7953 19.3344C17.8187 19.4094 17.8141 19.3906 18.0156 19.9438ZM19.6328 24.3922L20.0078 25.4234C20.0641 25.5828 19.9844 25.7609 19.825 25.8172L18.7938 26.1922C18.5875 26.2672 18.4094 26.3938 18.2687 26.5625H15.7797L15.5312 25.8828C15.475 25.7234 15.5547 25.5453 15.7141 25.4891L16.7453 25.1141C17.3922 24.8797 17.725 24.1625 17.4906 23.5156L17.1156 22.4844C17.0875 22.4094 17.0922 22.325 17.125 22.25C17.1578 22.175 17.2234 22.1188 17.2984 22.0906L18.3297 21.7156C18.4891 21.6594 18.6297 21.5703 18.7516 21.4578L18.7562 21.4531C18.7609 21.4484 18.7656 21.4438 18.7703 21.4391C19.1219 21.0969 19.2438 20.5813 19.075 20.1219L18.7 19.0906C18.6438 18.9313 18.7234 18.7531 18.8828 18.6969L19.9141 18.3219C20.5609 18.0875 20.8937 17.375 20.6594 16.7234L20.2844 15.6922C20.2281 15.5328 20.3078 15.3547 20.4672 15.2984C21.4844 14.9281 22.5859 14.975 23.5703 15.4344C23.8188 15.5516 23.8047 15.9078 23.5469 16.0016C22.9 16.2359 22.5672 16.9484 22.8016 17.5953L23.1766 18.6266C23.2328 18.7859 23.1531 18.9641 22.9938 19.0203L21.9625 19.3953C21.3156 19.6297 20.9828 20.3469 21.2172 20.9938L21.5453 21.8891C21.55 21.9594 21.5734 22.0297 21.6109 22.0906C21.6297 22.2313 21.55 22.3672 21.4094 22.4188L20.3781 22.7938C19.7312 23.0328 19.3984 23.7453 19.6328 24.3922ZM24.1094 24.8797V25.9766C24.1094 26.15 23.9406 26.2297 23.7859 26.2297H22.6891C22.4125 26.2297 22.1359 26.3469 21.9016 26.5578H20.4156C20.875 26.2484 21.0906 25.6531 20.8891 25.1L20.5141 24.0688C20.4578 23.9094 20.5375 23.7313 20.6969 23.675L21.7281 23.3C22.3 23.0938 22.6141 22.5172 22.5344 21.9594C22.5812 21.9359 22.6328 21.9172 22.6844 21.9172H24.0953C24.7844 21.9172 25.3422 21.3641 25.3422 20.675C25.3422 20.3984 25.675 20.2625 25.8672 20.4594C26.6406 21.2234 27.0625 22.2453 27.0625 23.3281C27.0625 23.5016 26.9172 23.6563 26.7531 23.6563H25.3422C24.6484 23.6563 24.1094 24.1953 24.1094 24.8797Z" />
<path d="M18.3438 5.9375C17.3078 5.9375 16.4688 6.77656 16.4688 7.8125C16.4688 8.84844 17.3078 9.6875 18.3438 9.6875C19.3797 9.6875 20.2188 8.84844 20.2188 7.8125C20.2188 6.77656 19.3797 5.9375 18.3438 5.9375ZM18.3438 8.75C17.8281 8.75 17.4062 8.32812 17.4062 7.8125C17.4062 7.29688 17.8281 6.875 18.3438 6.875C18.8594 6.875 19.2812 7.29688 19.2812 7.8125C19.2812 8.32812 18.8594 8.75 18.3438 8.75Z" />
<path d="M20.6875 10.625C19.9141 10.625 19.2812 11.2578 19.2812 12.0312C19.2812 12.8047 19.9141 13.4375 20.6875 13.4375C21.4609 13.4375 22.0938 12.8047 22.0938 12.0312C22.0938 11.2578 21.4609 10.625 20.6875 10.625ZM20.6875 12.5C20.4297 12.5 20.2188 12.2891 20.2188 12.0312C20.2188 11.7734 20.4297 11.5625 20.6875 11.5625C20.9453 11.5625 21.1562 11.7734 21.1562 12.0312C21.1562 12.2891 20.9453 12.5 20.6875 12.5Z" />
    </symbol>

    <symbol id="seeds" viewBox="0 0 32 32" fill="currentColor">
    <g clip-path="url(#clip0)">
<path d="M26.4822 14.1448L26.3037 13.4356L25.6462 13.971C25.4114 13.3135 25.1624 12.919 25.0497 12.7546L24.9229 12.5761L24.7022 12.5573C24.5566 12.5479 24.2372 12.5385 23.7769 12.5949L24.0681 11.7072L23.2556 11.9045C23.0301 11.9608 22.7812 12.0313 22.5135 12.1205C22.5135 12.1205 22.5135 12.1205 22.5135 12.1158C22.6168 6.76162 20.3624 4.3851 20.1041 4.13618C20.0994 4.13148 20.0947 4.13148 20.09 4.12679C20.0853 4.12209 20.0806 4.1127 20.0759 4.108C20.0431 4.08452 20.0102 4.07043 19.9726 4.05164C19.9538 4.04225 19.9397 4.03285 19.9209 4.02346C19.8599 4.00467 19.7941 3.99528 19.7284 3.99998C19.7284 3.99998 19.7284 3.99998 19.7237 3.99998C19.3667 4.03755 16.1213 4.48373 12.8337 8.75301C12.6458 9.03951 12.472 9.34009 12.3076 9.64538C10.8141 8.57454 9.6728 8.30213 9.33933 8.24107C9.20313 8.21759 9.06223 8.25516 8.9589 8.3444C8.78982 8.49 7.78474 9.40585 6.991 11.3738C6.9816 11.3972 6.97221 11.416 6.96282 11.4395C6.49315 12.6278 6.09863 14.1824 6 16.1784C6.03757 17.3338 6.21605 18.5127 6.53542 19.6775C6.85479 20.8422 7.30098 21.946 7.87867 22.9933C9.22192 25.0129 10.4431 25.5154 11.4387 25.5154C12.0305 25.5154 12.5472 25.337 12.9558 25.1961C13.1718 25.1209 14.1065 24.8579 14.2614 24.825C14.7264 25.7691 15.5249 26.1589 16.1072 26.4407C16.3139 26.5393 17.3049 27.1076 17.4975 27.2297C17.9953 27.5585 18.6622 28 19.5875 28C20.4658 28 21.5742 27.6008 22.9879 26.3233C23.7816 25.4779 24.4861 24.5197 25.0826 23.4677C25.6791 22.4203 26.1487 21.3213 26.4775 20.1706C27.0411 17.4184 26.7922 15.3753 26.4822 14.1448ZM23.4528 13.5906C23.8755 13.5013 24.1996 13.4826 24.411 13.4779C24.5331 13.6892 24.7115 14.0556 24.8759 14.591L22.4947 16.5166L23.4528 13.5906ZM18.62 5.24929C18.2489 5.8035 17.8779 6.43285 17.4834 7.18902C17.3659 7.41446 17.4505 7.69626 17.6759 7.81837C17.7464 7.85594 17.8215 7.87003 17.892 7.87003C18.0611 7.87003 18.2207 7.7808 18.3053 7.62111C18.8313 6.62072 19.3057 5.85516 19.7941 5.20232C20.4282 6.03833 21.6587 8.17062 21.5836 12.0595C21.5695 12.2051 21.5507 12.3507 21.5272 12.4963C21.5131 12.501 21.5037 12.5057 21.4896 12.515C21.3675 12.5714 21.2407 12.6278 21.1092 12.6935C21.0247 12.7358 20.9401 12.7781 20.8556 12.8203C20.8086 12.8438 20.7569 12.872 20.71 12.8955C20.2356 13.1491 19.7659 13.4356 19.2963 13.7597C19.2634 13.7785 19.2352 13.8019 19.2023 13.8254C19.0943 13.9006 18.9863 13.9804 18.8783 14.0603C18.8313 14.0931 18.789 14.126 18.7421 14.1636C18.6434 14.2387 18.5448 14.3139 18.4462 14.3937C18.3851 14.4454 18.3194 14.497 18.2536 14.5487C18.1691 14.6145 18.0892 14.6849 18.0047 14.7554C17.8544 14.8822 17.7041 15.0137 17.5538 15.1499C17.3566 15.3612 17.164 15.5773 16.9761 15.8027C16.591 16.2677 16.2294 16.7608 15.8959 17.2822C15.7456 17.517 15.6 17.7565 15.4591 18.0008C15.4403 18.0336 15.4215 18.0712 15.4027 18.1041C15.2431 18.3859 15.0975 18.6724 14.9566 18.9636C14.9519 18.9683 14.9519 18.9777 14.9472 18.9871L14.9378 19.0105C14.9331 19.0199 14.9284 19.0293 14.9237 19.0387C14.9096 19.0716 14.8908 19.1092 14.8767 19.142C15.2431 16.1456 15.9147 13.3323 16.8869 10.7726C16.9761 10.533 16.8587 10.2653 16.6145 10.1714C16.375 10.0822 16.1025 10.1996 16.0133 10.4438C14.9894 13.1538 14.2849 16.1362 13.9186 19.3158C13.8341 19.2923 13.7542 19.2642 13.665 19.2407C12.6411 18.9542 11.3636 18.6019 11.4247 15.4927C11.5327 14.4125 11.7816 13.3229 12.1573 12.252C12.3546 11.6884 12.5988 11.1201 12.8806 10.5565C12.8806 10.5518 12.8806 10.5518 12.8853 10.5471C13.1061 10.1103 13.3409 9.68765 13.5945 9.29313C15.553 6.75692 17.4364 5.69548 18.62 5.24929ZM13.9796 23.9327C13.8012 23.9749 12.9605 24.2098 12.6552 24.3178C11.6501 24.6653 10.4008 25.1021 8.6771 22.5143C8.15108 21.5655 7.73307 20.5276 7.43718 19.4332C7.13659 18.3389 6.96751 17.2352 6.93464 16.1878C7.02387 14.4501 7.34325 13.088 7.73307 12.0313C8.43288 11.9984 9.13268 11.9045 9.809 11.7354C10.0579 11.6743 10.2129 11.4207 10.1472 11.1718C10.0861 10.9229 9.83249 10.7679 9.58356 10.8289C9.1092 10.9464 8.62544 11.0215 8.13699 11.0685C8.62544 10.0681 9.13738 9.4716 9.40039 9.20389C9.82309 9.31191 10.7342 9.62659 11.8849 10.4767C11.8708 10.5049 11.8614 10.5377 11.8474 10.5659C11.7534 10.7679 11.6595 10.9745 11.575 11.1812C11.4716 11.4348 11.373 11.6837 11.2885 11.9327C10.8892 13.0693 10.6262 14.234 10.5041 15.4223C10.429 19.2876 12.3076 19.8137 13.4254 20.1237C13.6462 20.1847 14.3037 20.4665 14.3178 20.4665C14.3225 20.4665 14.3366 20.4665 14.3366 20.4665C14.3272 20.49 14.3225 20.5182 14.3131 20.5464C14.2239 20.7906 14.1487 21.0254 14.083 21.2509C14.0783 21.2649 14.0783 21.2743 14.0736 21.2884C14.0219 21.5374 13.9843 21.7722 13.9562 21.9976C13.9468 22.0728 13.9421 22.1479 13.9327 22.2231C13.9186 22.3687 13.9045 22.519 13.8951 22.6552C13.8904 22.7303 13.8904 22.7961 13.8904 22.8712C13.8857 23.0121 13.8904 23.1483 13.8951 23.2798C13.8998 23.3315 13.8998 23.3831 13.9045 23.4301C13.9186 23.6039 13.9374 23.7636 13.9656 23.9139C13.975 23.9186 13.975 23.928 13.9796 23.9327ZM25.5804 19.9546C25.2798 20.9972 24.8431 22.0258 24.2795 23.0121C23.7205 23.9984 23.0583 24.9002 22.3444 25.661C20.0102 27.7698 18.9065 27.0419 18.0188 26.4548C17.7511 26.2763 16.807 25.7409 16.5205 25.6C15.9523 25.3229 15.3041 25.0035 14.9988 24.1581C14.9988 24.1487 14.9988 24.1393 14.9941 24.1346C14.7687 23.4865 14.7687 22.5988 14.9894 21.4998C15.0458 21.3025 15.1115 21.1006 15.182 20.9033C15.2431 20.7248 15.3135 20.537 15.3933 20.335C15.5155 20.0203 15.6517 19.7103 15.7926 19.4098C15.802 19.3863 15.816 19.3581 15.816 19.3581C15.816 19.3581 15.816 19.3581 15.816 19.3534C15.9616 19.0434 16.1166 18.7475 16.281 18.4563C16.4125 18.2262 16.5487 18.0008 16.6896 17.78C16.8352 17.5546 16.9855 17.3338 17.1405 17.1225L17.1452 17.1178C17.1452 17.1178 17.1452 17.1178 17.1452 17.1131C17.4834 16.6481 17.8403 16.2066 18.216 15.8074C18.4086 15.6336 18.6012 15.4693 18.789 15.3143C18.8454 15.2673 18.9018 15.225 18.9534 15.1781C19.0943 15.0653 19.2305 14.9573 19.3667 14.8587C19.4231 14.8164 19.4795 14.7741 19.5358 14.7319C19.6814 14.6285 19.8223 14.5252 19.9632 14.4313C20.0055 14.4031 20.0477 14.3749 20.09 14.3467C20.4611 14.1025 20.818 13.8912 21.1609 13.708C21.2313 13.6704 21.3018 13.6375 21.3675 13.6047C21.4661 13.5577 21.5648 13.506 21.6587 13.4591C21.7761 13.4027 21.8935 13.3511 22.011 13.3041C22.2317 13.2102 22.4477 13.1256 22.645 13.0552L20.6254 19.2313L25.726 15.1029C25.9233 16.2536 25.9937 17.888 25.5804 19.9546Z"/>
<path d="M19.5827 15.9389C19.4371 16.0235 16.0461 18.1135 15.8301 22.3311C15.816 22.5894 16.0132 22.8055 16.2715 22.8196C16.2809 22.8196 16.2856 22.8196 16.295 22.8196C16.5392 22.8196 16.7459 22.627 16.76 22.3781C16.9479 18.6677 20.0289 16.7562 20.0617 16.7374C20.2825 16.6059 20.3529 16.3194 20.2214 16.0986C20.0899 15.8779 19.8034 15.8074 19.5827 15.9389Z"/>
</g>
<defs>
<clipPath id="clip0">
<rect width="20.8157" height="24" transform="translate(6 4)"/>
</clipPath>
</defs>
    </symbol>



    <symbol id="left-arrow" viewBox="0 0 15 29">
    <path d="M14 28L1.91422 15.9142C1.13317 15.1332 1.13317 13.8668 1.91421 13.0858L14 1" stroke="black" stroke-width="2" stroke-linecap="round"/>
    </symbol>

    <symbol id="right-arrow" viewBox="0 0 15 29"> 
      <path d="M1 1L13.0858 13.0858C13.8668 13.8668 13.8668 15.1332 13.0858 15.9142L1 28" stroke="black" stroke-width="2" stroke-linecap="round"/>
    </symbol>

 

</svg>